<svg width="76" height="63" fill="none" xmlns="http://www.w3.org/2000/svg"><path fill="#fff" d="M0 0h76v63H0z"/><path d="M24.114 27.288c-.976 0-1.848-.12-2.616-.36-.752-.256-1.392-.6-1.92-1.032a4.388 4.388 0 01-1.176-1.536 4.6 4.6 0 01-.408-1.944c0-1.088.296-1.968.888-2.64.608-.688 1.416-1.168 2.424-1.44v-.192c-.832-.304-1.512-.776-2.04-1.416-.512-.64-.768-1.448-.768-2.424 0-.64.12-1.224.36-1.752a3.94 3.94 0 011.104-1.368c.48-.384 1.064-.68 1.752-.888.704-.224 1.504-.336 2.4-.336.896 0 1.688.112 2.376.336.704.208 1.296.504 1.776.888s.84.84 1.08 1.368c.256.528.384 1.112.384 1.752 0 .976-.264 1.784-.792 2.424-.512.64-1.184 1.112-2.016 1.416v.192c1.008.272 1.808.752 2.4 1.44.608.672.912 1.552.912 2.64a4.6 4.6 0 01-.408 1.944 4.274 4.274 0 01-1.2 1.536c-.512.432-1.152.776-1.92 1.032-.752.24-1.616.36-2.592.36zm0-2.472c.912 0 1.608-.208 2.088-.624.496-.416.744-1 .744-1.752v-.504c0-.752-.248-1.336-.744-1.752-.48-.416-1.176-.624-2.088-.624-.912 0-1.616.208-2.112.624-.48.416-.72 1-.72 1.752v.504c0 .752.24 1.336.72 1.752.496.416 1.2.624 2.112.624zm0-7.608c.848 0 1.496-.192 1.944-.576.448-.384.672-.928.672-1.632v-.384c0-.688-.224-1.224-.672-1.608-.448-.384-1.096-.576-1.944-.576-.848 0-1.496.192-1.944.576-.448.384-.672.92-.672 1.608V15c0 .704.224 1.248.672 1.632.448.384 1.096.576 1.944.576zm14.39 10.08c-1.071 0-2-.192-2.783-.576a5.238 5.238 0 01-1.944-1.704c-.512-.736-.896-1.64-1.152-2.712-.24-1.072-.36-2.296-.36-3.672 0-1.36.12-2.576.36-3.648.256-1.088.64-2 1.152-2.736a5.037 5.037 0 011.944-1.68c.784-.4 1.712-.6 2.784-.6 2.128 0 3.696.76 4.704 2.28 1.024 1.52 1.536 3.648 1.536 6.384s-.512 4.864-1.536 6.384c-1.008 1.52-2.576 2.28-4.704 2.28zm0-2.664c1.073 0 1.817-.4 2.233-1.2.432-.816.648-1.912.648-3.288v-3.024c0-1.376-.216-2.464-.648-3.264-.416-.816-1.16-1.224-2.232-1.224-1.072 0-1.824.408-2.256 1.224-.416.8-.624 1.888-.624 3.264v3.024c0 1.376.208 2.472.624 3.288.432.8 1.184 1.2 2.256 1.2zm14.391 2.664c-1.072 0-2-.192-2.784-.576a5.238 5.238 0 01-1.944-1.704c-.512-.736-.896-1.64-1.152-2.712-.24-1.072-.36-2.296-.36-3.672 0-1.36.12-2.576.36-3.648.256-1.088.64-2 1.152-2.736a5.037 5.037 0 011.944-1.68c.784-.4 1.712-.6 2.784-.6 2.128 0 3.696.76 4.704 2.28 1.024 1.52 1.536 3.648 1.536 6.384s-.512 4.864-1.536 6.384c-1.008 1.52-2.576 2.28-4.704 2.28zm0-2.664c1.072 0 1.816-.4 2.232-1.2.432-.816.648-1.912.648-3.288v-3.024c0-1.376-.216-2.464-.648-3.264-.416-.816-1.16-1.224-2.232-1.224-1.072 0-1.824.408-2.256 1.224-.416.8-.624 1.888-.624 3.264v3.024c0 1.376.208 2.472.624 3.288.432.8 1.184 1.2 2.256 1.2zM17.26 39.472h3.528l3.312 5.52h.096l3.264-5.52h3.432V52h-2.976v-8.736h-.096l-.864 1.632-2.88 4.752-2.88-4.752-.864-1.632h-.096V52H17.26V39.472zm15.716 10.08h1.632c.16-.24.304-.528.432-.864.144-.336.264-.744.36-1.224.096-.496.168-1.08.216-1.752.064-.688.096-1.488.096-2.4v-3.84h9.528V52h-3.072V41.92H38.64v1.536c0 1.136-.04 2.128-.12 2.976-.08.832-.2 1.552-.36 2.16-.144.608-.328 1.12-.552 1.536-.208.4-.44.728-.696.984a3.013 3.013 0 01-1.248.768c-.464.144-1.032.216-1.704.216h-.984v-2.544zm15.784-10.08h3.072v4.92h4.824v-4.92h3.072V52h-3.072v-5.16h-4.824V52H48.76V39.472z" fill="#000105"/><path d="M75 1H1v61h74V1z" stroke="#000" stroke-width="2"/></svg>