<svg width="111" height="63" fill="none" xmlns="http://www.w3.org/2000/svg"><path fill="#fff" d="M0 0h111v63H0z"/><path d="M12.48 29.136h6v-.12c0-1.36-.36-2.408-1.08-3.144-.72-.736-1.712-1.104-2.976-1.104-1.04 0-1.832.224-2.376.672-.544.432-.968 1.016-1.272 1.752l-2.64-1.512c.656-1.2 1.472-2.12 2.448-2.76.992-.64 2.272-.96 3.84-.96 2.336 0 4.152.72 5.448 2.16 1.312 1.424 1.968 3.552 1.968 6.384 0 2.832-.656 5.008-1.968 6.528-1.296 1.504-3.112 2.256-5.448 2.256-1.632 0-2.96-.336-3.984-1.008-1.024-.672-1.824-1.608-2.4-2.808l2.568-1.584c.288.768.728 1.392 1.32 1.872.608.48 1.44.72 2.496.72 1.264 0 2.256-.376 2.976-1.128.72-.752 1.08-1.816 1.08-3.192v-.24h-6v-2.784zm12.389-2.664h3.072v4.92h2.016l1.896-3.288c.352-.608.712-1.032 1.08-1.272.368-.24.856-.36 1.464-.36h1.368v2.448H34.42l-1.32 2.304c-.224.416-.44.712-.648.888-.208.16-.456.28-.744.36v.12c.288.064.544.176.768.336.24.16.472.44.696.84l1.56 2.784h1.32V39h-1.56c-.608 0-1.112-.128-1.512-.384-.384-.256-.752-.696-1.104-1.32l-1.92-3.48H27.94V39h-3.072V26.472zm18.537 12.816c-.928 0-1.752-.152-2.472-.456a4.87 4.87 0 01-1.824-1.32c-.48-.576-.848-1.264-1.104-2.064-.256-.816-.384-1.728-.384-2.736 0-1.008.128-1.912.384-2.712.256-.8.624-1.48 1.104-2.04a4.87 4.87 0 011.824-1.32c.72-.304 1.544-.456 2.472-.456 1.264 0 2.304.28 3.12.84.832.56 1.432 1.336 1.8 2.328l-2.52 1.128a2.51 2.51 0 00-.816-1.296c-.384-.352-.912-.528-1.584-.528-.864 0-1.512.272-1.944.816-.416.544-.624 1.256-.624 2.136v2.28c0 .88.208 1.592.624 2.136.432.528 1.08.792 1.944.792.736 0 1.304-.184 1.704-.552.4-.384.712-.856.936-1.416l2.352 1.128c-.416 1.104-1.048 1.936-1.896 2.496-.848.544-1.88.816-3.096.816zm7.361-12.816h10.608V39h-3.072V28.92H53.84V39h-3.072V26.472zm19.124 12.816c-.896 0-1.704-.152-2.424-.456a5.138 5.138 0 01-1.824-1.32c-.496-.576-.88-1.264-1.152-2.064-.272-.816-.408-1.728-.408-2.736 0-1.008.136-1.912.408-2.712.272-.8.656-1.48 1.152-2.04a5.138 5.138 0 011.824-1.32c.72-.304 1.528-.456 2.424-.456.896 0 1.704.152 2.424.456a4.87 4.87 0 011.824 1.32c.512.56.904 1.24 1.176 2.04.272.8.408 1.704.408 2.712 0 1.008-.136 1.92-.408 2.736a5.945 5.945 0 01-1.176 2.064 4.87 4.87 0 01-1.824 1.32c-.72.304-1.528.456-2.424.456zm0-2.472c.816 0 1.456-.248 1.92-.744.464-.496.696-1.224.696-2.184V31.56c0-.944-.232-1.664-.696-2.16-.464-.496-1.104-.744-1.92-.744-.8 0-1.432.248-1.896.744-.464.496-.696 1.216-.696 2.16v2.328c0 .96.232 1.688.696 2.184.464.496 1.096.744 1.896.744zm8.556-10.344h3.072v2.064h.096a3.094 3.094 0 011.272-1.704c.624-.432 1.352-.648 2.184-.648 1.6 0 2.816.568 3.648 1.704.848 1.12 1.272 2.728 1.272 4.824 0 2.112-.424 3.736-1.272 4.872-.832 1.136-2.048 1.704-3.648 1.704-.832 0-1.56-.216-2.184-.648a3.373 3.373 0 01-1.272-1.728h-.096V43.8h-3.072V26.472zm5.64 10.272c.8 0 1.448-.264 1.944-.792s.744-1.24.744-2.136v-2.16c0-.896-.248-1.608-.744-2.136-.496-.544-1.144-.816-1.944-.816-.736 0-1.352.184-1.848.552-.48.368-.72.856-.72 1.464v3.984c0 .656.24 1.16.72 1.512.496.352 1.112.528 1.848.528zm11.13-7.824H91.4v-2.448h10.704v2.448h-3.816V39h-3.072V28.92z" fill="#000105"/><path stroke="#000" stroke-width="2" d="M1 1h108.864v61H1z"/></svg>