<svg width="81" height="63" viewBox="0 0 81 63" fill="none" xmlns="http://www.w3.org/2000/svg">
<rect width="81" height="63" fill="white"/>
<rect x="1" y="1" width="79" height="61" stroke="black" stroke-width="2"/>
<path d="M64.8629 23.2042C59.4184 18.6257 51.0999 16 42.0478 16C32.9957 16 24.6827 18.6257 19.2382 23.2042L18.9183 23.48V47.0177H65.1829V23.48L64.8629 23.2042ZM32.5378 45.225V43.5039H51.5633V45.225H32.5378ZM51.5633 34.6338H32.5378V32.9128H51.5633V34.6338ZM32.5378 36.4431H51.5633V38.1642H32.5378V36.4431ZM32.5378 39.9735H51.5633V41.6946H32.5378V39.9735ZM63.3736 45.225H53.3726V31.1034H30.7285V45.225H20.7276V24.324C25.7915 20.242 33.7238 17.8093 42.0478 17.8093C50.3718 17.8093 58.3041 20.242 63.3736 24.324V45.225Z" fill="#000105"/>
</svg>
