<svg width="76" height="63" fill="none" xmlns="http://www.w3.org/2000/svg"><path fill="#fff" d="M0 0h76v63H0z"/><path d="M34.804 18.92H27.82V26h-3.168V9.248h3.168v6.864h6.984V9.248h3.168V26h-3.168v-7.08zm11.97 7.368c-.928 0-1.76-.152-2.496-.456a5.496 5.496 0 01-1.848-1.32c-.496-.576-.88-1.264-1.152-2.064-.272-.816-.408-1.728-.408-2.736 0-.992.128-1.888.384-2.688.272-.8.656-1.48 1.152-2.04a4.87 4.87 0 011.824-1.32c.72-.32 1.536-.48 2.448-.48.976 0 1.824.168 2.544.504a4.9 4.9 0 011.776 1.368 5.732 5.732 0 011.032 2.016c.24.752.36 1.56.36 2.424v1.008h-8.328v.312c0 .912.256 1.648.768 2.208.512.544 1.272.816 2.28.816.768 0 1.392-.16 1.872-.48.496-.32.936-.728 1.32-1.224l1.656 1.848c-.512.72-1.216 1.288-2.112 1.704-.88.4-1.904.6-3.072.6zm-.048-10.8c-.816 0-1.464.272-1.944.816-.48.544-.72 1.248-.72 2.112v.192h5.136v-.216c0-.864-.216-1.56-.648-2.088-.416-.544-1.024-.816-1.824-.816zM26.67 38.976h-.096l-1.296 2.664-3.432 6.336-3.432-6.336-1.296-2.664h-.096V51h-3V34.248h3.576l4.296 8.184h.096l4.248-8.184h3.432V51h-3V38.976zm13.45 12.312c-1.105 0-2.105-.176-3-.528a6.233 6.233 0 01-2.28-1.632c-.625-.72-1.105-1.608-1.44-2.664-.337-1.072-.505-2.312-.505-3.72 0-1.408.168-2.656.504-3.744.336-1.104.816-2.024 1.44-2.76.64-.752 1.4-1.32 2.28-1.704.896-.384 1.896-.576 3-.576 1.504 0 2.752.32 3.744.96.992.64 1.784 1.608 2.376 2.904l-2.712 1.44c-.24-.752-.632-1.352-1.176-1.8-.544-.464-1.288-.696-2.232-.696-1.184 0-2.128.4-2.832 1.2-.688.8-1.032 1.92-1.032 3.36v2.64c0 1.456.344 2.576 1.032 3.36.704.768 1.648 1.152 2.832 1.152.944 0 1.712-.256 2.304-.768a4.386 4.386 0 001.32-1.896l2.568 1.512c-.608 1.248-1.416 2.224-2.424 2.928-1.008.688-2.264 1.032-3.768 1.032zm8.894-17.04h12.96V51h-3.168V37.056h-6.624V51h-3.168V34.248z" fill="#000105"/><path d="M75 1H1v61h74V1z" stroke="#000" stroke-width="2"/></svg>