<svg width="76" height="63" fill="none" xmlns="http://www.w3.org/2000/svg"><path fill="#fff" d="M0 0h76v63H0z"/><path d="M19.098 27v-2.568h4.608V12.528h-.216l-3.648 4.32-1.968-1.656 4.152-4.944h4.776v14.184h3.84V27H19.098zm19.407.288c-1.072 0-2-.192-2.784-.576a5.238 5.238 0 01-1.944-1.704c-.512-.736-.896-1.64-1.152-2.712-.24-1.072-.36-2.296-.36-3.672 0-1.36.12-2.576.36-3.648.256-1.088.64-2 1.152-2.736a5.037 5.037 0 011.944-1.68c.784-.4 1.712-.6 2.784-.6 2.128 0 3.696.76 4.704 2.28 1.024 1.52 1.536 3.648 1.536 6.384s-.512 4.864-1.536 6.384c-1.008 1.52-2.576 2.28-4.704 2.28zm0-2.664c1.072 0 1.816-.4 2.232-1.2.432-.816.648-1.912.648-3.288v-3.024c0-1.376-.216-2.464-.648-3.264-.416-.816-1.16-1.224-2.232-1.224-1.072 0-1.824.408-2.256 1.224-.416.8-.624 1.888-.624 3.264v3.024c0 1.376.208 2.472.624 3.288.432.8 1.184 1.2 2.256 1.2zm14.39 2.664c-1.072 0-2-.192-2.784-.576a5.238 5.238 0 01-1.944-1.704c-.512-.736-.896-1.64-1.152-2.712-.24-1.072-.36-2.296-.36-3.672 0-1.36.12-2.576.36-3.648.256-1.088.64-2 1.152-2.736a5.037 5.037 0 011.944-1.68c.784-.4 1.712-.6 2.784-.6 2.128 0 3.696.76 4.704 2.28 1.024 1.52 1.536 3.648 1.536 6.384s-.512 4.864-1.536 6.384c-1.008 1.52-2.576 2.28-4.704 2.28zm0-2.664c1.072 0 1.816-.4 2.232-1.2.432-.816.648-1.912.648-3.288v-3.024c0-1.376-.216-2.464-.648-3.264-.416-.816-1.16-1.224-2.232-1.224-1.072 0-1.824.408-2.256 1.224-.416.8-.624 1.888-.624 3.264v3.024c0 1.376.208 2.472.624 3.288.432.8 1.184 1.2 2.256 1.2zM17.26 39.472h3.528l3.312 5.52h.096l3.264-5.52h3.432V52h-2.976v-8.736h-.096l-.864 1.632-2.88 4.752-2.88-4.752-.864-1.632h-.096V52H17.26V39.472zm15.716 10.08h1.632c.16-.24.304-.528.432-.864.144-.336.264-.744.36-1.224.096-.496.168-1.08.216-1.752.064-.688.096-1.488.096-2.4v-3.84h9.528V52h-3.072V41.92H38.64v1.536c0 1.136-.04 2.128-.12 2.976-.08.832-.2 1.552-.36 2.16-.144.608-.328 1.12-.552 1.536-.208.4-.44.728-.696.984a3.013 3.013 0 01-1.248.768c-.464.144-1.032.216-1.704.216h-.984v-2.544zm15.784-10.08h3.072v4.92h4.824v-4.92h3.072V52h-3.072v-5.16h-4.824V52H48.76V39.472z" fill="#000105"/><path stroke="#000" stroke-width="2" d="M1 1h74v61H1z"/></svg>