<svg width="81" height="63" fill="none" xmlns="http://www.w3.org/2000/svg"><path fill="#fff" d="M0 0h81v63H0z"/><path stroke="#000" stroke-width="2" d="M1 1h79v61H1z"/><path d="M64.863 23.204C59.418 18.626 51.1 16 42.048 16c-9.052 0-17.365 2.626-22.81 7.204l-.32.276v23.538h46.265V23.48l-.32-.276zM32.538 45.225v-1.721h19.025v1.721H32.538zm19.025-10.591H32.538v-1.721h19.025v1.72zm-19.025 1.81h19.025v1.72H32.538v-1.72zm0 3.53h19.025v1.72H32.538v-1.72zm30.836 5.251H53.373V31.103H30.729v14.122H20.727V24.324c5.063-4.082 12.996-6.515 21.32-6.515s16.256 2.433 21.326 6.515v20.901z" fill="#000105"/></svg>