<svg width="110" height="63" fill="none" xmlns="http://www.w3.org/2000/svg"><path fill="#fff" d="M0 0h110v63H0z"/><path d="M18.52 26.288c-2.497 0-4.52-.872-6.073-2.616l2.136-2.064A5.919 5.919 0 0016.311 23c.64.32 1.376.48 2.208.48 1.04 0 1.832-.192 2.376-.576.544-.384.816-.944.816-1.68v-.216c0-.72-.224-1.248-.672-1.584-.432-.352-1.12-.528-2.064-.528h-2.808v-2.784h2.664c1.712 0 2.568-.72 2.568-2.16v-.192c0-.64-.232-1.128-.696-1.464-.448-.352-1.136-.528-2.064-.528-.768 0-1.472.144-2.112.432a4.299 4.299 0 00-1.56 1.2l-2.016-1.92a6.854 6.854 0 012.424-1.848c.96-.448 2.048-.672 3.264-.672 1.936 0 3.44.416 4.512 1.248 1.072.816 1.608 1.928 1.608 3.336 0 1.136-.328 2.008-.984 2.616-.64.592-1.448.944-2.424 1.056v.144c.48.032.944.136 1.392.312.448.16.84.4 1.176.72.352.304.632.688.84 1.152.208.448.312.976.312 1.584a4.86 4.86 0 01-.456 2.112 4.882 4.882 0 01-1.296 1.632c-.56.448-1.248.8-2.064 1.056-.816.24-1.728.36-2.736.36zm7.79-2.736h1.584c.464-.672.808-1.52 1.032-2.544.224-1.024.336-2.344.336-3.96v-3.576h9.624v10.08h2.136v5.808h-2.784V26h-9.144v3.36H26.31v-5.808zm9.504 0V15.92H32.19v1.272c0 1.712-.104 3.072-.312 4.08-.208.992-.464 1.752-.768 2.28h4.704zM52.437 26c-.672 0-1.208-.192-1.608-.576-.384-.4-.624-.928-.72-1.584h-.144c-.208.816-.632 1.432-1.272 1.848-.64.4-1.432.6-2.376.6-1.28 0-2.264-.336-2.952-1.008-.688-.672-1.032-1.568-1.032-2.688 0-1.296.464-2.256 1.392-2.88.928-.64 2.248-.96 3.96-.96h2.136v-.912c0-.704-.184-1.248-.552-1.632-.368-.384-.96-.576-1.776-.576-.72 0-1.304.16-1.752.48-.432.304-.8.672-1.104 1.104l-1.824-1.632a5.183 5.183 0 011.848-1.728c.768-.448 1.784-.672 3.048-.672 1.696 0 2.984.384 3.864 1.152.88.768 1.32 1.872 1.32 3.312v5.904h1.248V26h-1.704zm-5.088-1.944c.688 0 1.272-.152 1.752-.456.48-.304.72-.752.72-1.344V20.6h-1.968c-1.6 0-2.4.512-2.4 1.536v.408c0 .512.16.896.48 1.152.336.24.808.36 1.416.36zm9.279-10.584H59.7v4.92h4.824v-4.92h3.072V26h-3.072v-5.16H59.7V26h-3.072V13.472zm14.53 0h3v5.592l-.263 2.928h.096l1.464-2.664 3.912-5.856h2.76V26h-3v-5.592l.264-2.952h-.096l-1.464 2.688L73.919 26h-2.76V13.472zm19.596 12.816c-.928 0-1.76-.152-2.496-.456a5.496 5.496 0 01-1.848-1.32c-.496-.576-.88-1.264-1.152-2.064-.272-.816-.408-1.728-.408-2.736 0-.992.128-1.888.384-2.688.272-.8.656-1.48 1.152-2.04a4.87 4.87 0 011.824-1.32c.72-.32 1.536-.48 2.448-.48.976 0 1.824.168 2.544.504a4.9 4.9 0 011.776 1.368 5.732 5.732 0 011.032 2.016c.24.752.36 1.56.36 2.424v1.008h-8.328v.312c0 .912.256 1.648.768 2.208.512.544 1.272.816 2.28.816.768 0 1.392-.16 1.872-.48.496-.32.936-.728 1.32-1.224l1.656 1.848c-.512.72-1.216 1.288-2.112 1.704-.88.4-1.904.6-3.072.6zm-.048-10.8c-.816 0-1.464.272-1.944.816-.48.544-.72 1.248-.72 2.112v.192h5.136v-.216c0-.864-.216-1.56-.648-2.088-.416-.544-1.024-.816-1.824-.816zM9.438 47.976l6.48-3.96v-.168l-6.48-3.96v-3.12l9.649 6.144v2.016L9.438 51.12v-3.144zm24.375-10.992h-7.536l-.384 5.616h.168c.176-.352.368-.68.576-.984.208-.304.448-.56.72-.768.272-.208.584-.368.936-.48.368-.128.808-.192 1.32-.192.72 0 1.392.12 2.016.36.624.24 1.16.592 1.608 1.056.464.448.824 1 1.08 1.656.272.656.408 1.4.408 2.232 0 .848-.136 1.624-.408 2.328a5.27 5.27 0 01-1.2 1.848c-.528.512-1.176.912-1.944 1.2-.768.288-1.648.432-2.64.432-.768 0-1.456-.088-2.064-.264a5.856 5.856 0 01-1.608-.672 5.637 5.637 0 01-1.2-.984 8.928 8.928 0 01-.888-1.2l2.304-1.776c.192.32.392.624.6.912.208.272.448.512.72.72.288.208.6.376.936.504.352.112.76.168 1.224.168.944 0 1.656-.264 2.136-.792.496-.528.744-1.248.744-2.16v-.192c0-.864-.248-1.544-.744-2.04s-1.184-.744-2.064-.744c-.688 0-1.248.136-1.68.408-.432.256-.776.536-1.032.84l-2.592-.36.624-9.408h9.864v2.736zm9.23 14.304c-1.071 0-2-.192-2.783-.576a5.238 5.238 0 01-1.944-1.704c-.512-.736-.896-1.64-1.152-2.712-.24-1.072-.36-2.296-.36-3.672 0-1.36.12-2.576.36-3.648.256-1.088.64-2 1.152-2.736a5.037 5.037 0 011.944-1.68c.784-.4 1.712-.6 2.784-.6 2.128 0 3.696.76 4.704 2.28 1.024 1.52 1.536 3.648 1.536 6.384s-.512 4.864-1.536 6.384c-1.008 1.52-2.576 2.28-4.704 2.28zm0-2.664c1.073 0 1.817-.4 2.233-1.2.432-.816.648-1.912.648-3.288v-3.024c0-1.376-.216-2.464-.648-3.264-.416-.816-1.16-1.224-2.232-1.224-1.072 0-1.824.408-2.256 1.224-.416.8-.624 1.888-.624 3.264v3.024c0 1.376.208 2.472.624 3.288.432.8 1.184 1.2 2.256 1.2zm14.64-10.152h3.527l3.312 5.52h.096l3.264-5.52h3.432V51h-2.976v-8.736h-.096l-.864 1.632-2.88 4.752-2.88-4.752-.864-1.632h-.096V51h-2.976V38.472zm15.715 10.08h1.632c.16-.24.304-.528.432-.864.144-.336.264-.744.36-1.224.096-.496.168-1.08.216-1.752.064-.688.096-1.488.096-2.4v-3.84h9.528V51H82.59V40.92h-3.528v1.536c0 1.136-.04 2.128-.12 2.976-.08.832-.2 1.552-.36 2.16-.144.608-.328 1.12-.552 1.536-.208.4-.44.728-.696.984a3.013 3.013 0 01-1.248.768c-.464.144-1.032.216-1.704.216h-.984v-2.544zm15.784-10.08h3.072v4.92h4.824v-4.92h3.072V51h-3.072v-5.16h-4.824V51h-3.072V38.472z" fill="#000105"/><path d="M109 1H1v61h108V1z" stroke="#000" stroke-width="2"/></svg>