<svg width="111" height="63" fill="none" xmlns="http://www.w3.org/2000/svg"><path fill="#fff" d="M0 0h111v63H0z"/><path d="M52.304 19.92H45.32V27h-3.168V10.248h3.168v6.864h6.984v-6.864h3.168V27h-3.168v-7.08zm11.97 7.368c-.928 0-1.76-.152-2.496-.456a5.496 5.496 0 01-1.848-1.32c-.496-.576-.88-1.264-1.152-2.064-.272-.816-.408-1.728-.408-2.736 0-.992.128-1.888.384-2.688.272-.8.656-1.48 1.152-2.04a4.87 4.87 0 011.824-1.32c.72-.32 1.536-.48 2.448-.48.976 0 1.824.168 2.544.504a4.9 4.9 0 011.776 1.368 5.732 5.732 0 011.032 2.016c.24.752.36 1.56.36 2.424v1.008h-8.328v.312c0 .912.256 1.648.768 2.208.512.544 1.272.816 2.28.816.768 0 1.392-.16 1.872-.48.496-.32.936-.728 1.32-1.224l1.656 1.848c-.512.72-1.216 1.288-2.112 1.704-.88.4-1.904.6-3.072.6zm-.048-10.8c-.816 0-1.464.272-1.944.816-.48.544-.72 1.248-.72 2.112v.192h5.136v-.216c0-.864-.216-1.56-.648-2.088-.416-.544-1.024-.816-1.824-.816zM13.55 44.56h4.368v-.096c0-.816-.232-1.488-.696-2.016-.448-.528-1.12-.792-2.016-.792-.784 0-1.384.16-1.8.48-.416.304-.736.744-.96 1.32l-2.4-1.32a5.129 5.129 0 011.872-2.16c.816-.528 1.912-.792 3.288-.792.976 0 1.832.152 2.568.456a4.831 4.831 0 011.848 1.32c.496.56.872 1.24 1.128 2.04.256.8.384 1.704.384 2.712 0 1.008-.128 1.92-.384 2.736-.256.8-.64 1.488-1.152 2.064a4.797 4.797 0 01-1.872 1.32c-.736.304-1.592.456-2.568.456-1.344 0-2.408-.256-3.192-.768-.768-.512-1.416-1.288-1.944-2.328l2.376-1.224c.24.624.576 1.088 1.008 1.392.432.304 1.016.456 1.752.456.944 0 1.64-.248 2.088-.744.448-.512.672-1.24.672-2.184v-.192H13.55V44.56zm10.304-5.088h3.072v4.92h2.016l1.896-3.288c.352-.608.712-1.032 1.08-1.272.368-.24.856-.36 1.464-.36h1.368v2.448h-1.344l-1.32 2.304c-.224.416-.44.712-.648.888-.208.16-.456.28-.744.36v.12c.288.064.544.176.768.336.24.16.472.44.696.84l1.56 2.784h1.32V52h-1.56c-.608 0-1.112-.128-1.512-.384-.384-.256-.752-.696-1.104-1.32l-1.92-3.48h-2.016V52h-3.072V39.472zm18.538 12.816c-.928 0-1.752-.152-2.472-.456a4.87 4.87 0 01-1.824-1.32c-.48-.576-.848-1.264-1.104-2.064-.256-.816-.384-1.728-.384-2.736 0-1.008.128-1.912.384-2.712.256-.8.624-1.48 1.104-2.04a4.87 4.87 0 011.824-1.32c.72-.304 1.544-.456 2.472-.456 1.264 0 2.304.28 3.12.84.832.56 1.432 1.336 1.8 2.328l-2.52 1.128a2.51 2.51 0 00-.816-1.296c-.384-.352-.912-.528-1.584-.528-.864 0-1.512.272-1.944.816-.416.544-.624 1.256-.624 2.136v2.28c0 .88.208 1.592.624 2.136.432.528 1.08.792 1.944.792.736 0 1.304-.184 1.704-.552.4-.384.712-.856.936-1.416l2.352 1.128c-.416 1.104-1.048 1.936-1.896 2.496-.848.544-1.88.816-3.096.816zm7.36-12.816h10.609V52h-3.072V41.92h-4.464V52h-3.072V39.472zm19.125 12.816c-.896 0-1.704-.152-2.424-.456a5.138 5.138 0 01-1.824-1.32c-.496-.576-.88-1.264-1.152-2.064-.272-.816-.408-1.728-.408-2.736 0-1.008.136-1.912.408-2.712.272-.8.656-1.48 1.152-2.04a5.138 5.138 0 011.824-1.32c.72-.304 1.528-.456 2.424-.456.896 0 1.704.152 2.424.456a4.87 4.87 0 011.824 1.32c.512.56.904 1.24 1.176 2.04.272.8.408 1.704.408 2.712 0 1.008-.136 1.92-.408 2.736a5.945 5.945 0 01-1.176 2.064 4.87 4.87 0 01-1.824 1.32c-.72.304-1.528.456-2.424.456zm0-2.472c.816 0 1.456-.248 1.92-.744.464-.496.696-1.224.696-2.184V44.56c0-.944-.232-1.664-.696-2.16-.464-.496-1.104-.744-1.92-.744-.8 0-1.432.248-1.896.744-.464.496-.696 1.216-.696 2.16v2.328c0 .96.232 1.688.696 2.184.464.496 1.096.744 1.896.744zm8.555-10.344h3.072v2.064h.096a3.094 3.094 0 011.272-1.704c.624-.432 1.352-.648 2.184-.648 1.6 0 2.816.568 3.648 1.704.848 1.12 1.272 2.728 1.272 4.824 0 2.112-.424 3.736-1.272 4.872-.832 1.136-2.048 1.704-3.648 1.704-.832 0-1.56-.216-2.184-.648a3.373 3.373 0 01-1.272-1.728h-.096V56.8h-3.072V39.472zm5.64 10.272c.8 0 1.448-.264 1.944-.792s.744-1.24.744-2.136v-2.16c0-.896-.248-1.608-.744-2.136-.496-.544-1.144-.816-1.944-.816-.736 0-1.352.184-1.848.552-.48.368-.72.856-.72 1.464v3.984c0 .656.24 1.16.72 1.512.496.352 1.112.528 1.848.528zm11.13-7.824h-3.816v-2.448h10.704v2.448h-3.816V52h-3.072V41.92z" fill="#000105"/><path d="M110 1H1v61h109V1z" stroke="#000" stroke-width="2"/></svg>