<svg width="81" height="63" viewBox="0 0 81 63" fill="none" xmlns="http://www.w3.org/2000/svg">
<rect width="81" height="63" fill="white"/>
<rect x="1" y="1" width="79" height="61" stroke="black" stroke-width="2"/>
<path d="M57.6866 17.8101V9.69026H48.309V3.21973H46.5053V9.69026H37.1277V17.8101H34.5626V42.6332H19.8784V44.437H23.999V58.9998H60.2517V17.8101H57.6866ZM38.8984 11.4941H55.8828V17.8101H38.8984V11.4941ZM53.5936 57.2181H25.8028V44.448H53.5936V57.2181ZM58.4479 57.2181H55.3974V42.6552H36.3333V19.6139H58.4534L58.4479 57.2181Z" fill="#000105"/>
<path d="M56.7819 22.3227H37.9936V24.1265H56.7819V22.3227Z" fill="#000105"/>
<path d="M56.7819 27.072H37.9936V28.8758H56.7819V27.072Z" fill="#000105"/>
<path d="M56.7819 31.8214H37.9936V33.6252H56.7819V31.8214Z" fill="#000105"/>
<path d="M56.7819 36.5651H37.9936V38.3689H56.7819V36.5651Z" fill="#000105"/>
</svg>
