<svg width="81" height="63" viewBox="0 0 81 63" fill="none" xmlns="http://www.w3.org/2000/svg">
<rect width="81" height="63" fill="white"/>
<rect x="1" y="1" width="79" height="61" stroke="black" stroke-width="2"/>
<path d="M24.1918 46.3534H32.5379V37.4005H24.1918V46.3534ZM26.0122 39.2319H30.7396V44.5716H26.0122V39.2319Z" fill="#000105"/>
<path d="M60.3175 37.4005H51.9715V46.3313H60.3175V37.4005ZM58.5082 44.5716H53.7808V39.2595H58.5082V44.5716Z" fill="#000105"/>
<path d="M60.3175 24.9781H51.9715V33.9089H60.3175V24.9781ZM58.5082 32.0995H53.7808V26.7874H58.5082V32.0995Z" fill="#000105"/>
<path d="M37.8775 33.9089H46.2236V24.9781H37.8775V33.9089ZM39.6868 26.7874H44.4142V32.0995H39.6868V26.7874Z" fill="#000105"/>
<path d="M32.1351 24.9781H23.8056V33.9089H32.1351V24.9781ZM30.3258 32.0995H25.5984V26.7874H30.3258V32.0995Z" fill="#000105"/>
<path d="M42.0533 11L18.9183 22.7275V51.8807H65.1773V22.7275L42.0533 11ZM38.1092 50.088V39.1769H45.9974V50.088H38.1092ZM63.3735 50.088H47.8067V37.4006H36.2999V50.088H20.7276V23.8363L42.0533 13.03L63.3735 23.8363V50.088Z" fill="#000105"/>
</svg>
