<svg width="76" height="63" fill="none" xmlns="http://www.w3.org/2000/svg"><path fill="#fff" d="M0 0h76v63H0z"/><path d="M75 1H1v61h74V1z" stroke="#000" stroke-width="2"/><path d="M50.003 31.454v15.682H34.778V16.443h11.417v6.528h1.045a1.725 1.725 0 011.592 1.062 1.716 1.716 0 01-1.255 2.344 1.726 1.726 0 01-1.769-.731 1.716 1.716 0 01-.29-.955h-2.05a3.748 3.748 0 002.088 3.357 3.769 3.769 0 003.943-.369 3.755 3.755 0 001.427-3.686 3.75 3.75 0 00-2.669-2.92v-4.619h6.817L46.718 8H12v8.454h12.06v23.351H13.994V57H63V31.454H50.003zM14.05 14.391v-4.35h31.806l4.302 4.35H14.05zm12.061 2.052h6.582v30.693h-2.05v-7.343H26.11v-23.35zm34.81 38.494H16.043V41.846h12.578v7.336h23.432V33.506h8.897l-.029 21.43z" fill="#201600"/></svg>