<svg width="101" height="63" fill="none" xmlns="http://www.w3.org/2000/svg"><path fill="#fff" d="M0 0h101v63H0z"/><path d="M9.421 9.248h12.96V26h-3.168V12.056H12.59V26H9.421V9.248zm21.675 17.04c-.896 0-1.704-.152-2.424-.456a5.138 5.138 0 01-1.824-1.32c-.496-.576-.88-1.264-1.152-2.064-.272-.816-.408-1.728-.408-2.736 0-1.008.136-1.912.408-2.712.272-.8.656-1.48 1.152-2.04a5.138 5.138 0 011.824-1.32c.72-.304 1.528-.456 2.424-.456.896 0 1.704.152 2.424.456a4.87 4.87 0 011.824 1.32c.512.56.904 1.24 1.176 2.04.272.8.408 1.704.408 2.712 0 1.008-.136 1.92-.408 2.736a5.945 5.945 0 01-1.176 2.064 4.87 4.87 0 01-1.824 1.32c-.72.304-1.528.456-2.424.456zm0-2.472c.816 0 1.456-.248 1.92-.744.464-.496.696-1.224.696-2.184V18.56c0-.944-.232-1.664-.696-2.16-.464-.496-1.104-.744-1.92-.744-.8 0-1.432.248-1.896.744-.464.496-.696 1.216-.696 2.16v2.328c0 .96.232 1.688.696 2.184.464.496 1.096.744 1.896.744zm6.901-.264h1.584c.464-.672.808-1.52 1.032-2.544.224-1.024.336-2.344.336-3.96v-3.576h9.624v10.08h2.136v5.808h-2.784V26h-9.144v3.36h-2.784v-5.808zm9.504 0V15.92h-3.624v1.272c0 1.712-.104 3.072-.312 4.08-.208.992-.464 1.752-.768 2.28h4.704zm12.378 2.736c-.912 0-1.728-.152-2.448-.456a4.71 4.71 0 01-1.824-1.416c-.496-.656-.88-1.488-1.152-2.496-.256-1.008-.384-2.208-.384-3.6 0-1.648.128-3.072.384-4.272.256-1.2.656-2.2 1.2-3a5.454 5.454 0 012.088-1.872c.848-.432 1.856-.704 3.024-.816l4.032-.384v2.976l-4.104.384c-.624.064-1.144.192-1.56.384a2.45 2.45 0 00-1.032.816c-.256.368-.448.856-.576 1.464-.112.592-.192 1.328-.24 2.208h.096c.304-.832.72-1.456 1.248-1.872.544-.416 1.272-.624 2.184-.624.688 0 1.328.136 1.92.408a4.22 4.22 0 011.56 1.2c.432.512.768 1.144 1.008 1.896.256.752.384 1.608.384 2.568 0 .992-.136 1.888-.408 2.688-.256.8-.64 1.488-1.152 2.064a4.994 4.994 0 01-1.824 1.296c-.72.304-1.528.456-2.424.456zm.048-2.472c.784 0 1.408-.248 1.872-.744.464-.496.696-1.208.696-2.136v-1.8c0-.96-.24-1.688-.72-2.184-.464-.496-1.104-.744-1.92-.744-.832 0-1.472.24-1.92.72-.432.464-.648 1.112-.648 1.944v1.992c0 .96.232 1.696.696 2.208.48.496 1.128.744 1.944.744zm13.45 2.472c-.896 0-1.704-.152-2.424-.456a5.138 5.138 0 01-1.824-1.32c-.496-.576-.88-1.264-1.152-2.064-.272-.816-.408-1.728-.408-2.736 0-1.008.136-1.912.408-2.712.272-.8.656-1.48 1.152-2.04a5.138 5.138 0 011.824-1.32c.72-.304 1.528-.456 2.424-.456.896 0 1.704.152 2.424.456a4.87 4.87 0 011.824 1.32c.512.56.904 1.24 1.176 2.04.272.8.408 1.704.408 2.712 0 1.008-.136 1.92-.408 2.736a5.945 5.945 0 01-1.176 2.064 4.87 4.87 0 01-1.824 1.32c-.72.304-1.528.456-2.424.456zm0-2.472c.816 0 1.456-.248 1.92-.744.464-.496.696-1.224.696-2.184V18.56c0-.944-.232-1.664-.696-2.16-.464-.496-1.104-.744-1.92-.744-.8 0-1.432.248-1.896.744-.464.496-.696 1.216-.696 2.16v2.328c0 .96.232 1.688.696 2.184.464.496 1.096.744 1.896.744zm8.555-10.344h3.072v2.064h.096a3.094 3.094 0 011.272-1.704c.624-.432 1.352-.648 2.184-.648 1.6 0 2.816.568 3.648 1.704.848 1.12 1.272 2.728 1.272 4.824 0 2.112-.424 3.736-1.272 4.872-.832 1.136-2.048 1.704-3.648 1.704-.832 0-1.56-.216-2.184-.648a3.373 3.373 0 01-1.272-1.728h-.096V30.8h-3.072V13.472zm5.64 10.272c.8 0 1.448-.264 1.944-.792s.744-1.24.744-2.136v-2.16c0-.896-.248-1.608-.744-2.136-.496-.544-1.144-.816-1.944-.816-.736 0-1.352.184-1.848.552-.48.368-.72.856-.72 1.464v3.984c0 .656.24 1.16.72 1.512.496.352 1.112.528 1.848.528zm-44.31 27.544c-2.497 0-4.52-.872-6.073-2.616l2.136-2.064A5.919 5.919 0 0041.053 48c.64.32 1.376.48 2.208.48 1.04 0 1.832-.192 2.376-.576.544-.384.816-.944.816-1.68v-.216c0-.72-.224-1.248-.672-1.584-.432-.352-1.12-.528-2.064-.528H40.91v-2.784h2.664c1.712 0 2.568-.72 2.568-2.16v-.192c0-.64-.232-1.128-.696-1.464-.448-.352-1.136-.528-2.064-.528-.768 0-1.472.144-2.112.432a4.299 4.299 0 00-1.56 1.2l-2.016-1.92a6.854 6.854 0 012.424-1.848c.96-.448 2.048-.672 3.264-.672 1.936 0 3.44.416 4.512 1.248 1.072.816 1.608 1.928 1.608 3.336 0 1.136-.328 2.008-.984 2.616-.64.592-1.448.944-2.424 1.056v.144c.48.032.944.136 1.392.312.448.16.84.4 1.176.72.352.304.632.688.84 1.152.208.448.312.976.312 1.584a4.86 4.86 0 01-.456 2.112 4.882 4.882 0 01-1.296 1.632c-.56.448-1.248.8-2.064 1.056-.816.24-1.728.36-2.736.36zm10.434-3.096h2.784l.48-1.224-5.952-12.72h3.36l2.736 5.928 1.344 3.192h.072l1.176-3.24 2.352-5.88h3.144L59.288 48.72a5.196 5.196 0 01-.576 1.08 3.075 3.075 0 01-.72.72 2.875 2.875 0 01-.96.384 7.068 7.068 0 01-1.248.096h-2.088v-2.808z" fill="#000105"/><path d="M100 1H1v61h99V1z" stroke="#000" stroke-width="2"/></svg>