<svg width="76" height="63" fill="none" xmlns="http://www.w3.org/2000/svg"><path fill="#fff" d="M0 0h76v63H0z"/><path d="M26.67 26.976h-.095l-1.296 2.664-3.432 6.336-3.432-6.336-1.296-2.664h-.096V39h-3V22.248h3.576l4.296 8.184h.096l4.248-8.184h3.432V39h-3V26.976zm13.45 12.312c-1.104 0-2.104-.176-3-.528a6.233 6.233 0 01-2.28-1.632c-.624-.72-1.104-1.608-1.44-2.664-.336-1.072-.504-2.312-.504-3.72 0-1.408.168-2.656.504-3.744.336-1.104.816-2.024 1.44-2.76.64-.752 1.4-1.32 2.28-1.704.896-.384 1.896-.576 3-.576 1.504 0 2.752.32 3.744.96.992.64 1.784 1.608 2.376 2.904l-2.712 1.44c-.24-.752-.632-1.352-1.176-1.8-.544-.464-1.288-.696-2.232-.696-1.184 0-2.128.4-2.832 1.2-.688.8-1.032 1.92-1.032 3.36v2.64c0 1.456.344 2.576 1.032 3.36.704.768 1.648 1.152 2.832 1.152.944 0 1.712-.256 2.304-.768a4.386 4.386 0 001.32-1.896l2.568 1.512c-.608 1.248-1.416 2.224-2.424 2.928-1.008.688-2.264 1.032-3.768 1.032zm8.895-17.04h12.96V39h-3.168V25.056h-6.624V39h-3.168V22.248z" fill="#000105"/><path stroke="#000" stroke-width="2" d="M1 1h74v61H1z"/></svg>