<svg width="81" height="63" fill="none" xmlns="http://www.w3.org/2000/svg"><path fill="#fff" d="M0 0h81v63H0z"/><path d="M57.65 28.665L56.316 8H44.88l-.995 16.037-4.865 3.662V20.12l-10.053 7.578V20.12l-11.968 9.041v25.723h46.834v-26.22H57.65zm-3.114-18.75l.283 4.465h-8.426l.283-4.464h7.86zm-8.663 12.602l.396-6.216h8.674l.808 12.364h-6.702V20.12l-3.176 2.396zm-17.81 30.44v-8.735h8.374v8.736h-8.375zm16.273 0v-8.735h8.38v8.736h-8.38zm17.557 0h-7.272V42.296H42.426v10.651h-4.068V42.295H26.152v10.651h-7.261V30.1l8.137-6.137v7.595l10.075-7.595v7.595l6.617-4.99 3.436-2.588v6.617h14.766l-.029 22.36z" fill="#000105"/><path d="M80 1H1v61h79V1z" stroke="#000" stroke-width="2"/></svg>