<svg width="81" height="63" fill="none" xmlns="http://www.w3.org/2000/svg"><path fill="#fff" d="M0 0h81v63H0z"/><path stroke="#000" stroke-width="2" d="M1 1h79v61H1z"/><path d="M24.192 46.353h8.346V37.4h-8.346v8.953zm1.82-7.121h4.728v5.34h-4.728v-5.34zM60.318 37.4h-8.346v8.931h8.346v-8.93zm-1.81 7.172h-4.727v-5.313h4.727v5.313zm1.81-19.594h-8.346v8.93h8.346v-8.93zm-1.81 7.121h-4.727v-5.312h4.727V32.1zm-20.631 1.81h8.347v-8.93h-8.346v8.93zm1.81-7.122h4.727V32.1h-4.727v-5.313zm-7.552-1.809h-8.33v8.93h8.33v-8.93zm-1.81 7.121h-4.727v-5.312h4.728V32.1z" fill="#000105"/><path d="M42.053 11L18.918 22.727v29.154h46.26V22.727L42.052 11zM38.11 50.088V39.177h7.888v10.911H38.11zm25.264 0H47.807V37.401H36.3v12.687H20.728V23.836L42.053 13.03l21.32 10.806v26.252z" fill="#000105"/></svg>