<svg width="81" height="63" fill="none" xmlns="http://www.w3.org/2000/svg"><path fill="#fff" d="M0 0h81v63H0z"/><path stroke="#000" stroke-width="2" d="M1 1h79v61H1z"/><path d="M57.687 17.81V9.69h-9.378V3.22h-1.804v6.47h-9.377v8.12h-2.565v24.823H19.878v1.804H24V59h36.253V17.81h-2.565zm-18.789-6.316h16.985v6.316H38.898v-6.316zm14.696 45.724H25.803v-12.77h27.79v12.77zm4.854 0h-3.05V42.655H36.332V19.614h22.12l-.005 37.604z" fill="#000105"/><path d="M56.782 22.323H37.994v1.803h18.788v-1.803zm0 4.749H37.994v1.804h18.788v-1.804zm0 4.749H37.994v1.804h18.788v-1.804zm0 4.744H37.994v1.804h18.788v-1.804z" fill="#000105"/></svg>