<?xml version="1.0" encoding="utf-8"?><svg viewBox="0 0 749 202" xmlns="http://www.w3.org/2000/svg" xmlns:xlink="http://www.w3.org/1999/xlink"><style>:root>svg{display:none}:root>svg:target{display:block}</style><svg fill="none" viewBox="0 0 100 100" id="ambar" xmlns="http://www.w3.org/2000/svg"><path fill="#fff" d="M0 0h100v100H0z"/><path d="M94.721 44.72c-12.499-7.804-28.262-12.118-44.384-12.118-16.123 0-31.886 4.303-44.385 12.117l-.886.547v53.898h90.541V45.266l-.886-.547zM23.87 95.395V79.065h19.275v16.331H23.87zm33.658 0V79.065h19.275v16.331H57.528zm34.287 0h-11.22V75.33H53.737v20.066h-6.799V75.33h-26.86v20.066H8.859V47.361C20.616 40.271 35.302 36.37 50.37 36.37c15.068 0 29.72 3.902 41.512 10.991l-.067 48.035z" fill="var(--color-brown)"/><path d="M79.967 63.804H21.974v3.768h57.993v-3.768zM79.967 56.77H21.974v3.768h57.993V56.77zM79.967 49.736H21.974v3.768h57.993v-3.768z" fill="var(--color-dbrown)"/><path d="M94.721 44.72c-12.499-7.804-28.262-12.118-44.384-12.118-16.123 0-31.886 4.303-44.385 12.117l-.886.547v53.898h90.541V45.266l-.886-.547zM23.87 95.395V79.065h19.275v16.331H23.87zm33.658 0V79.065h19.275v16.331H57.528zm34.287 0h-11.22V75.33H53.737v20.066h-6.799V75.33h-26.86v20.066H8.859V47.361C20.616 40.271 35.302 36.37 50.37 36.37c15.068 0 29.72 3.902 41.512 10.991l-.067 48.035z" fill="var(--color-dbrown)"/><path d="M91.815 95.396h-11.22V75.33H53.737v20.066h-6.799V75.33h-26.86v20.066H8.859V47.361C20.616 40.271 35.303 36.37 50.37 36.37c15.068 0 29.72 3.901 41.512 10.991l-.067 48.035z" fill="var(--color-lbrown)"/><path d="M79.967 63.804H21.974v3.768h57.993v-3.768zM79.967 56.77H21.974v3.768h57.993V56.77zM79.967 49.736H21.974v3.768h57.993v-3.768zM76.803 79.065H57.528v16.331h19.275V79.065zM43.145 79.065H23.87v16.331h19.275V79.065z" fill="var(--color-brown)"/></svg><svg fill="none" viewBox="0 0 100 100" id="calc" xmlns="http://www.w3.org/2000/svg"><path d="M0 0h100v100H0z"/><path d="M67.034 55.795a3.154 3.154 0 003.149-3.16c0-1.746-1.41-3.16-3.149-3.16a3.154 3.154 0 00-3.149 3.16c0 1.745 1.41 3.16 3.15 3.16z" fill="#fff"/><path d="M76.238 23.772h-52.49v73.283h52.49V23.772z" fill="var(--color-red)"/><path d="M79 99.813H21V21h58v78.813zM23.762 97.04h52.476v-73.27H23.762v73.27z" fill="#201600"/><path d="M71.799 42.184H28.188V27.14h43.604l.007 15.044zm-40.842-2.771h38.08v-9.501H30.95l.007 9.5zM32.96 58.574a5.903 5.903 0 01-3.288-1.001 5.934 5.934 0 01-2.18-2.666 5.959 5.959 0 011.283-6.472 5.897 5.897 0 016.449-1.287 5.922 5.922 0 012.655 2.187 5.954 5.954 0 01-.738 7.497 5.914 5.914 0 01-4.182 1.742zm0-9.1a3.165 3.165 0 00-2.916 1.957 3.177 3.177 0 00.686 3.452 3.151 3.151 0 003.441.682 3.159 3.159 0 001.415-1.169 3.175 3.175 0 00-.398-3.996 3.15 3.15 0 00-2.229-.925z" fill="#201600"/><path d="M44.318 58.574a5.903 5.903 0 01-3.29-.998 5.934 5.934 0 01-2.182-2.664 5.958 5.958 0 011.278-6.474 5.896 5.896 0 016.45-1.29 5.921 5.921 0 012.656 2.186c.65.977.998 2.126.998 3.3a5.956 5.956 0 01-1.733 4.196 5.914 5.914 0 01-4.177 1.744zm0-9.1a3.148 3.148 0 00-2.921 1.953 3.178 3.178 0 00.682 3.454 3.151 3.151 0 003.442.685 3.158 3.158 0 001.416-1.17c.346-.521.53-1.134.529-1.761 0-.838-.332-1.642-.922-2.235a3.142 3.142 0 00-2.226-.925z" fill="#201600"/><path d="M55.676 58.574a5.902 5.902 0 01-3.29-.998 5.934 5.934 0 01-2.182-2.664 5.96 5.96 0 011.278-6.474 5.896 5.896 0 016.45-1.29 5.921 5.921 0 012.657 2.186c.65.977.997 2.126.997 3.3a5.963 5.963 0 01-1.734 4.194 5.92 5.92 0 01-4.176 1.746zm0-9.1a3.148 3.148 0 00-1.756.532c-.52.347-.925.841-1.165 1.42a3.178 3.178 0 00.683 3.455 3.152 3.152 0 003.442.685 3.159 3.159 0 001.415-1.17 3.176 3.176 0 00-.395-3.994 3.15 3.15 0 00-2.224-.927z" fill="#201600"/><path d="M67.027 58.574a5.903 5.903 0 01-3.287-1.001 5.934 5.934 0 01-2.18-2.666 5.959 5.959 0 011.283-6.472 5.897 5.897 0 016.449-1.287 5.922 5.922 0 012.656 2.187 5.955 5.955 0 01-.738 7.497 5.914 5.914 0 01-4.183 1.742zm0-9.1a3.148 3.148 0 00-2.915 1.957 3.178 3.178 0 00.687 3.452 3.151 3.151 0 003.44.682 3.175 3.175 0 001.016-5.166 3.15 3.15 0 00-2.228-.924zM32.959 70.278a5.902 5.902 0 01-3.288-1.001 5.934 5.934 0 01-2.18-2.667 5.96 5.96 0 011.286-6.473 5.898 5.898 0 016.451-1.283 5.922 5.922 0 012.654 2.19 5.954 5.954 0 01-.741 7.497 5.906 5.906 0 01-4.182 1.737zm0-9.099c-.624 0-1.234.186-1.753.534a3.165 3.165 0 00-1.342 3.25 3.17 3.17 0 00.864 1.622 3.152 3.152 0 003.438.687 3.158 3.158 0 001.417-1.166 3.175 3.175 0 00-.393-4 3.15 3.15 0 00-2.231-.927z" fill="#201600"/><path d="M44.317 70.278a5.902 5.902 0 01-3.29-.998 5.934 5.934 0 01-2.182-2.665 5.957 5.957 0 011.281-6.475 5.897 5.897 0 016.452-1.286 5.92 5.92 0 012.655 2.19 5.955 5.955 0 01-.738 7.495 5.907 5.907 0 01-4.178 1.739zm0-9.099a3.147 3.147 0 00-1.755.53 3.165 3.165 0 00-1.347 3.25 3.17 3.17 0 00.862 1.624 3.152 3.152 0 003.44.69 3.158 3.158 0 001.417-1.167 3.175 3.175 0 00-.39-3.997 3.15 3.15 0 00-2.227-.93z" fill="#201600"/><path d="M55.676 70.278a5.902 5.902 0 01-3.29-.998 5.935 5.935 0 01-2.183-2.665 5.96 5.96 0 011.282-6.475 5.897 5.897 0 016.452-1.286 5.922 5.922 0 012.655 2.19 5.954 5.954 0 01-.74 7.493 5.914 5.914 0 01-4.176 1.741zm0-9.099a3.147 3.147 0 00-1.755.53 3.165 3.165 0 00-1.348 3.25c.121.615.421 1.18.862 1.624a3.152 3.152 0 003.44.69 3.158 3.158 0 001.417-1.167 3.175 3.175 0 00-.391-3.995 3.158 3.158 0 00-2.225-.932z" fill="#201600"/><path d="M67.027 70.278a5.902 5.902 0 01-3.288-1.001 5.934 5.934 0 01-2.18-2.667 5.96 5.96 0 011.287-6.473 5.898 5.898 0 016.451-1.283 5.922 5.922 0 012.654 2.19 5.954 5.954 0 01-.742 7.497 5.906 5.906 0 01-4.182 1.737zm0-9.099c-.624 0-1.234.186-1.753.534a3.164 3.164 0 00-1.342 3.25 3.17 3.17 0 00.864 1.622 3.152 3.152 0 003.439.687 3.158 3.158 0 001.416-1.166 3.175 3.175 0 00-.392-4 3.15 3.15 0 00-2.232-.927zM32.96 81.99a5.902 5.902 0 01-3.288-1.001 5.934 5.934 0 01-2.18-2.666 5.959 5.959 0 011.283-6.472 5.897 5.897 0 016.449-1.287 5.921 5.921 0 012.655 2.187 5.953 5.953 0 01-.736 7.499 5.906 5.906 0 01-4.184 1.74zm0-9.1a3.165 3.165 0 00-2.916 1.957 3.177 3.177 0 00.686 3.452 3.151 3.151 0 004.856-.487 3.175 3.175 0 00-.398-3.996 3.15 3.15 0 00-2.229-.925z" fill="#201600"/><path d="M44.318 81.99a5.903 5.903 0 01-3.29-.998 5.935 5.935 0 01-2.182-2.664 5.958 5.958 0 011.278-6.474 5.899 5.899 0 016.45-1.29 5.923 5.923 0 012.656 2.186 5.954 5.954 0 01-.733 7.498 5.907 5.907 0 01-4.18 1.741zm0-9.1a3.147 3.147 0 00-1.756.531 3.165 3.165 0 00-1.347 3.253 3.17 3.17 0 00.864 1.623 3.151 3.151 0 003.442.685 3.157 3.157 0 001.416-1.17c.346-.521.53-1.135.529-1.761 0-.838-.332-1.642-.922-2.235a3.143 3.143 0 00-2.226-.925z" fill="#201600"/><path d="M55.676 81.99a5.903 5.903 0 01-3.29-.998 5.935 5.935 0 01-2.182-2.664 5.96 5.96 0 011.278-6.474 5.898 5.898 0 016.45-1.29 5.923 5.923 0 012.657 2.186 5.954 5.954 0 01-.736 7.496 5.913 5.913 0 01-4.177 1.743zm0-9.1a3.147 3.147 0 00-1.756.531 3.178 3.178 0 00-.482 4.875 3.151 3.151 0 003.442.686 3.157 3.157 0 001.415-1.17 3.175 3.175 0 00-.395-3.994 3.15 3.15 0 00-2.224-.927z" fill="#201600"/><path d="M67.027 81.99a5.902 5.902 0 01-3.287-1.001 5.934 5.934 0 01-2.18-2.666 5.959 5.959 0 011.283-6.472 5.897 5.897 0 016.449-1.287 5.922 5.922 0 012.656 2.187 5.954 5.954 0 01-.736 7.499 5.907 5.907 0 01-4.185 1.74zm0-9.1a3.148 3.148 0 00-2.915 1.957 3.178 3.178 0 00.687 3.452 3.151 3.151 0 004.855-.487 3.175 3.175 0 00-.398-3.996 3.15 3.15 0 00-2.229-.925zM32.96 93.694a5.9 5.9 0 01-3.283-1.003 5.93 5.93 0 01-2.174-2.664 5.951 5.951 0 011.286-6.462 5.89 5.89 0 016.44-1.283 5.915 5.915 0 012.652 2.185 5.95 5.95 0 01-.74 7.49 5.904 5.904 0 01-4.182 1.737zm0-9.092a3.14 3.14 0 00-1.748.536 3.171 3.171 0 00-.47 4.861 3.142 3.142 0 004.842-.482 3.168 3.168 0 00-1.418-4.676 3.139 3.139 0 00-1.207-.24z" fill="#201600"/><path d="M44.317 93.694a5.893 5.893 0 01-3.283-1 5.924 5.924 0 01-2.177-2.662 5.952 5.952 0 011.281-6.465 5.89 5.89 0 016.441-1.286 5.914 5.914 0 012.653 2.185 5.947 5.947 0 01-.737 7.489 5.907 5.907 0 01-4.178 1.739zm0-9.092a3.14 3.14 0 00-1.749.532 3.159 3.159 0 00-1.339 3.244c.122.613.422 1.177.862 1.618a3.146 3.146 0 003.431.686 3.151 3.151 0 001.413-1.165 3.169 3.169 0 00-.391-3.99 3.143 3.143 0 00-2.227-.925z" fill="#201600"/><path d="M55.676 93.694a5.893 5.893 0 01-3.284-1 5.924 5.924 0 01-2.177-2.662 5.953 5.953 0 011.282-6.465 5.89 5.89 0 016.441-1.286 5.916 5.916 0 012.652 2.185c.65.976.996 2.123.996 3.296a5.957 5.957 0 01-1.735 4.19 5.913 5.913 0 01-4.175 1.742zm0-9.092a3.141 3.141 0 00-2.909 1.95 3.17 3.17 0 00.682 3.444 3.146 3.146 0 003.432.686 3.168 3.168 0 001.944-2.92 3.172 3.172 0 00-.925-2.232 3.15 3.15 0 00-2.224-.928z" fill="#201600"/><path d="M67.027 93.694a5.9 5.9 0 01-3.281-1.003 5.93 5.93 0 01-2.174-2.664 5.951 5.951 0 011.285-6.462 5.89 5.89 0 016.44-1.283 5.915 5.915 0 012.652 2.185c.65.975.996 2.122.996 3.295a5.95 5.95 0 01-1.736 4.195 5.904 5.904 0 01-4.182 1.737zm0-9.092a3.14 3.14 0 00-1.747.536 3.158 3.158 0 00-1.333 3.245c.122.612.423 1.175.863 1.616a3.142 3.142 0 004.843-.482 3.168 3.168 0 00-1.419-4.676 3.139 3.139 0 00-1.207-.24z" fill="#201600"/><path d="M55.676 55.795a3.154 3.154 0 003.148-3.16c0-1.746-1.41-3.16-3.148-3.16a3.154 3.154 0 00-3.149 3.16c0 1.745 1.41 3.16 3.149 3.16zM55.676 67.506a3.154 3.154 0 003.148-3.16c0-1.745-1.41-3.16-3.148-3.16a3.154 3.154 0 00-3.149 3.16c0 1.745 1.41 3.16 3.149 3.16zM55.676 79.21a3.154 3.154 0 003.148-3.16c0-1.745-1.41-3.16-3.148-3.16a3.154 3.154 0 00-3.149 3.16c0 1.746 1.41 3.16 3.149 3.16zM55.676 90.922a3.154 3.154 0 003.148-3.16c0-1.745-1.41-3.16-3.148-3.16a3.154 3.154 0 00-3.149 3.16c0 1.745 1.41 3.16 3.149 3.16zM44.317 55.795a3.154 3.154 0 003.15-3.16c0-1.746-1.41-3.16-3.15-3.16a3.154 3.154 0 00-3.148 3.16c0 1.745 1.41 3.16 3.148 3.16zM44.317 67.506a3.154 3.154 0 003.15-3.16c0-1.745-1.41-3.16-3.15-3.16a3.154 3.154 0 00-3.148 3.16c0 1.745 1.41 3.16 3.148 3.16zM44.317 79.21a3.154 3.154 0 003.15-3.16c0-1.745-1.41-3.16-3.15-3.16a3.154 3.154 0 00-3.148 3.16c0 1.746 1.41 3.16 3.148 3.16zM44.317 90.922a3.154 3.154 0 003.15-3.16c0-1.745-1.41-3.16-3.15-3.16a3.154 3.154 0 00-3.148 3.16c0 1.745 1.41 3.16 3.148 3.16zM32.96 55.795a3.154 3.154 0 003.148-3.16c0-1.746-1.41-3.16-3.149-3.16a3.154 3.154 0 00-3.148 3.16c0 1.745 1.41 3.16 3.148 3.16zM32.96 67.506a3.154 3.154 0 003.148-3.16c0-1.745-1.41-3.16-3.149-3.16a3.154 3.154 0 00-3.148 3.16c0 1.745 1.41 3.16 3.148 3.16zM32.96 79.21a3.154 3.154 0 003.148-3.16c0-1.745-1.41-3.16-3.149-3.16a3.154 3.154 0 00-3.148 3.16c0 1.746 1.41 3.16 3.148 3.16zM32.96 90.922a3.154 3.154 0 003.148-3.16c0-1.745-1.41-3.16-3.149-3.16a3.154 3.154 0 00-3.148 3.16c0 1.745 1.41 3.16 3.148 3.16zM67.034 55.795a3.154 3.154 0 003.149-3.16c0-1.746-1.41-3.16-3.149-3.16a3.154 3.154 0 00-3.149 3.16c0 1.745 1.41 3.16 3.15 3.16zM67.034 67.506a3.154 3.154 0 003.149-3.16c0-1.745-1.41-3.16-3.149-3.16a3.154 3.154 0 00-3.149 3.16c0 1.745 1.41 3.16 3.15 3.16zM67.034 79.21a3.154 3.154 0 003.149-3.16c0-1.745-1.41-3.16-3.149-3.16a3.154 3.154 0 00-3.149 3.16c0 1.746 1.41 3.16 3.15 3.16zM67.034 90.922a3.154 3.154 0 003.149-3.16c0-1.745-1.41-3.16-3.149-3.16a3.154 3.154 0 00-3.149 3.16c0 1.745 1.41 3.16 3.15 3.16z" fill="#fff"/><path d="M68.802 29.912h-38.08v9.5h38.08v-9.5z" fill="var(--color-blue)"/></svg><svg fill="none" viewBox="0 0 100 100" id="car2" xmlns="http://www.w3.org/2000/svg"><path fill="#fff" d="M0 0h100v100H0z"/><path d="M70.531 63.785c-8.143-6.844-20.584-10.768-34.122-10.768S10.438 56.94 2.295 63.785l-.478.413v35.184H71.01V64.198l-.479-.413zM22.186 96.702v-2.573H50.64v2.573H22.186zM50.64 80.87H22.186v-2.573H50.64v2.573zm-28.454 2.705H50.64v2.572H22.186v-2.572zm0 5.277H50.64v2.573H22.186v-2.573zm46.117 7.85H53.346V75.593H19.48v21.109H4.523V65.459c7.573-6.102 19.437-9.738 31.886-9.738 12.45 0 24.313 3.636 31.895 9.738v31.243z" fill="#000105"/><path d="M70.531 63.785c-8.143-6.844-20.584-10.768-34.122-10.768S10.438 56.94 2.295 63.785l-.478.413v35.184H71.01V64.198l-.479-.413zM22.186 96.702v-2.573H50.64v2.573H22.186zM50.64 80.87H22.186v-2.573H50.64v2.573zm-28.454 2.705H50.64v2.572H22.186v-2.572zm0 5.277H50.64v2.573H22.186v-2.573zm46.117 7.85H53.346V75.593H19.48v21.109H4.523V65.459c7.573-6.102 19.437-9.738 31.886-9.738 12.45 0 24.313 3.636 31.895 9.738v31.243z" fill="#000105"/><path d="M68.303 96.702H53.346v-21.11H19.48v21.11H4.523V65.459c7.573-6.102 19.437-9.738 31.886-9.738 12.45 0 24.313 3.636 31.895 9.738v31.243z" fill="var(--color-blue)"/><path d="M99.323 84.844l-6.979-6.967h-6.938v-4.774H60.895V95.3h4.24a4.864 4.864 0 004.76 3.85 4.87 4.87 0 004.761-3.85h11.93a4.865 4.865 0 004.76 3.85 4.869 4.869 0 004.76-3.85h3.218V84.844zM69.897 97.106a2.83 2.83 0 01-2.776-3.38 2.827 2.827 0 013.859-2.061 2.83 2.83 0 011.746 2.612 2.836 2.836 0 01-2.83 2.829zm13.472-3.843h-8.712c0-.14-.066-.28-.107-.42-.042-.14 0-.066 0-.108 0-.04-.075-.206-.116-.313-.041-.107-.041-.099-.066-.156l-.124-.24a1.651 1.651 0 00-.09-.164c0-.075-.083-.149-.132-.223l-.108-.157c-.049-.066-.099-.14-.156-.206l-.108-.14-.19-.206-.106-.116-.256-.23-.075-.067-.346-.255-.115-.074-.265-.165-.148-.075-.248-.115-.165-.074-.255-.09-.174-.059-.272-.066-.173-.04-.305-.05h-1.238l-.305.05-.173.04-.273.066-.164.058-.256.09-.174.075-.247.115-.148.075-.264.165-.116.074-.346.255-.075.066c-.086.073-.169.15-.247.231l-.116.116-.19.206-.107.14c-.058.066-.107.14-.157.206l-.107.157c-.05.074-.09.148-.132.223a1.671 1.671 0 00-.09.164l-.124.24c0 .057-.05.107-.066.156-.017.05-.083.206-.116.314-.033.107 0 .074 0 .107s-.074.28-.107.42h-2.203v-18.14h20.436v18.14h-.083zm7.978 3.843a2.832 2.832 0 01-2.615-1.746 2.827 2.827 0 012.063-3.856 2.832 2.832 0 012.905 1.202c.31.465.477 1.012.477 1.572a2.836 2.836 0 01-2.83 2.828zm5.94-3.843h-1.18c0-.14-.066-.28-.107-.42a.393.393 0 010-.108c0-.107-.075-.206-.116-.313a.91.91 0 01-.066-.156l-.123-.24a1.759 1.759 0 00-.091-.164c0-.075-.083-.149-.132-.223l-.108-.157c-.049-.066-.099-.14-.156-.206l-.107-.14-.19-.206-.116-.116a3.219 3.219 0 00-.247-.23l-.075-.067-.346-.255-.116-.074-.264-.165-.148-.075-.256-.115-.165-.074-.256-.09-.173-.059-.264-.066-.173-.04-.305-.05h-1.238l-.305.05-.173.04-.273.066-.164.058-.264.09-.157.067-.264.123-.14.075-.281.173-.09.058a2.886 2.886 0 00-.355.272h-.05l-.28.255-.1.107-.198.223c-.035.04-.068.08-.099.124a1.515 1.515 0 00-.173.23.776.776 0 00-.09.133 2.028 2.028 0 00-.149.247.836.836 0 00-.082.14c-.05.09-.091.182-.133.272l-.057.124a3.29 3.29 0 00-.132.371v.058c0 .132-.075.272-.108.42h-1.18V79.914h6.097l5.776 5.772-.058 7.577z" fill="var(--color-stroke)"/><path d="M69.896 97.106a2.829 2.829 0 10.001-5.658 2.829 2.829 0 00-.001 5.658zM91.346 97.106a2.832 2.832 0 01-2.615-1.746 2.827 2.827 0 012.063-3.856 2.832 2.832 0 012.905 1.202c.31.465.477 1.012.477 1.572a2.836 2.836 0 01-2.83 2.828z" fill="var(--color-white)"/><path d="M83.368 93.263h-8.712c0-.14-.066-.28-.107-.42-.042-.14 0-.066 0-.107 0-.041-.075-.206-.116-.314-.041-.107-.041-.099-.066-.156l-.124-.24a1.66 1.66 0 00-.09-.164c0-.075-.083-.149-.132-.223l-.108-.157c-.049-.066-.099-.14-.156-.206l-.108-.14-.19-.206-.106-.116-.256-.23-.075-.066-.346-.256-.115-.074-.265-.165-.148-.074-.248-.116-.165-.074-.255-.09-.174-.058-.272-.066-.173-.042-.305-.049h-1.238l-.305.05-.173.04-.273.067-.164.057-.256.091-.174.074-.247.116-.148.074-.264.165-.116.074-.346.256-.075.066c-.086.072-.169.15-.247.23l-.116.116-.19.206-.107.14c-.058.066-.107.14-.157.206l-.107.157c-.05.074-.09.148-.132.223a1.64 1.64 0 00-.09.165l-.124.239c0 .057-.05.107-.066.156-.017.05-.083.207-.116.314-.033.107 0 .074 0 .107s-.074.28-.107.42h-2.203v-18.14h20.436v18.14h-.083z" fill="var(--color-brown)"/><path d="M97.286 93.263h-1.18c0-.14-.066-.28-.107-.42a.393.393 0 010-.107c0-.108-.075-.207-.116-.314a.906.906 0 01-.066-.156l-.123-.24a1.734 1.734 0 00-.091-.164c0-.075-.083-.149-.132-.223l-.108-.157c-.049-.066-.099-.14-.156-.206l-.107-.14-.19-.206-.116-.116a3.18 3.18 0 00-.247-.23l-.075-.066-.346-.256-.116-.074-.264-.165-.148-.074-.256-.116-.165-.074-.256-.09-.173-.058-.264-.066-.173-.042-.305-.05h-1.238l-.305.05-.173.042-.273.066-.164.057-.264.091-.157.066-.264.124-.14.074-.281.173-.09.058a2.886 2.886 0 00-.355.272h-.05l-.28.255-.1.108-.198.222c-.035.04-.068.08-.099.124a1.515 1.515 0 00-.173.23.772.772 0 00-.09.133 2.028 2.028 0 00-.149.247.83.83 0 00-.082.14c-.05.091-.091.182-.133.272l-.057.124a3.3 3.3 0 00-.132.371v.058c0 .132-.075.272-.108.42h-1.18V79.914h6.097l5.776 5.772-.058 7.577z" fill="var(--color-blue)"/></svg><svg fill="none" viewBox="0 0 100 100" id="cran" xmlns="http://www.w3.org/2000/svg"><g clip-path="url(#dclip0_31_11)"><path fill="#fff" d="M0 0h100v100H0z"/><path d="M70.129 60.386v24.53H46.27v-48.01h17.892v10.211H65.8c.534 0 1.056.158 1.5.454a2.68 2.68 0 01.41 4.138 2.703 2.703 0 01-2.943.583 2.683 2.683 0 01-1.667-2.485h-3.213a5.855 5.855 0 00.887 3.09 5.887 5.887 0 002.386 2.161 5.915 5.915 0 006.179-.576 5.875 5.875 0 001.942-2.566 5.851 5.851 0 00-1.145-6.076 5.899 5.899 0 00-2.743-1.69v-7.227h10.683L64.981 23.7H10.576v13.224h18.9V73.45H13.699v26.897h76.797v-39.96H70.129zm-56.34-26.69V26.89h49.842l6.741 6.805H13.789zm18.9 3.21h10.314v48.01H39.79V73.43h-7.101V36.906zm54.549 60.212H16.912V76.64h19.71v11.476h36.72V63.596h13.941l-.045 33.522z" fill="#201600"/><path d="M70.129 60.386v24.53H46.27v-48.01h17.892v10.211H65.8c.534 0 1.056.158 1.5.454a2.68 2.68 0 01.41 4.138 2.703 2.703 0 01-2.943.583 2.683 2.683 0 01-1.667-2.485h-3.213a5.855 5.855 0 00.887 3.09 5.887 5.887 0 002.386 2.161 5.915 5.915 0 006.179-.576 5.875 5.875 0 001.942-2.566 5.851 5.851 0 00-1.145-6.076 5.899 5.899 0 00-2.743-1.69v-7.227h10.683L64.981 23.7H10.576v13.224h18.9V73.45H13.699v26.897h76.797v-39.96H70.129zm-56.34-26.69V26.89h49.842l6.741 6.805H13.789zm18.9 3.21h10.314v48.01H39.79V73.43h-7.101V36.906zm54.549 60.212H16.912V76.64h19.71v11.476h36.72V63.596h13.941l-.045 33.522z" fill="#201600"/><path d="M13.789 33.696v-6.805h49.842l6.741 6.805H13.789zM32.734 36.906h10.323v48.01h-3.222V73.43h-7.101V36.906z" fill="var(--color-yellow)"/><path d="M87.283 97.118H16.912V76.64h19.71v11.476h36.72v-24.53h13.941v33.53z" fill="var(--color-orange)"/></g><defs><clipPath id="dclip0_31_11"><path fill="#fff" d="M0 0h100v100H0z"/></clipPath></defs></svg><svg viewBox="0 0 100 100" id="crest" xmlns="http://www.w3.org/2000/svg"><path fill="#fff" d="M0 0h100v100H0z"/><path d="M90.243 17.01L52.926 54.329 15.609 17.011 11.96 20.67l37.306 37.306-37.306 37.317 3.648 3.659 37.317-37.318 37.317 37.318 3.648-3.659-37.307-37.317L93.892 20.67l-3.648-3.66z"/></svg><svg fill="none" viewBox="0 0 100 100" id="envelop" xmlns="http://www.w3.org/2000/svg"><path d="M0 0h100v100H0z"/><path d="M89 43H11v54h78V43z" fill="#fff"/><path d="M90.255 39H9v61h83V39h-1.745zm-6.417 4.889L56.462 68.242l-5.89 5.232-6.525-5.794-26.83-23.791h66.621zm3.254 3.621v43.944L62.388 69.509 87.092 47.51zM38.739 69.49L13.908 91.58V47.42l24.831 22.07zM17.216 95.13l25.122-22.362 8.162 7.243 7.69-6.844.454-.417 25.121 22.361-66.549.018z" fill="var(--color-black)"/></svg><svg fill="none" viewBox="0 0 47 35" id="envelop2" xmlns="http://www.w3.org/2000/svg"><path d="M45.18.65H.48v33.69h45.66V.65h-.96zm-3.53 2.7L26.59 16.8l-3.24 2.89-3.59-3.2L5 3.35h36.65zm1.79 2v24.27L29.85 17.5 43.44 5.35zm-26.6 12.14L3.18 29.69V5.3l13.66 12.19zM5 31.65L18.82 19.3l4.49 4 4.23-3.78.25-.23 13.82 12.35L5 31.65z" fill="#fff"/></svg><svg viewBox="0 0 43 55" id="first" xmlns="http://www.w3.org/2000/svg"><path d="M5.37 54.55v-9.38h14.57V8.89h-.7l-11 14.42L.8 17.5 13.8.45h17.82v44.72H43v9.38H5.37z"/></svg><svg viewBox="0 0 37 49" id="fiv" xmlns="http://www.w3.org/2000/svg"><path d="M33.69 9.05H11.83l-1 15.24h.56c.422-1.09.94-2.142 1.55-3.14a9.774 9.774 0 012-2.41 8.233 8.233 0 012.83-1.55 12.37 12.37 0 013.93-.56 16.05 16.05 0 015.8 1 13.651 13.651 0 014.69 3 14.241 14.241 0 013.17 4.83 16.929 16.929 0 011.17 6.45 18.65 18.65 0 01-1.21 6.79 14.639 14.639 0 01-3.58 5.41 16.678 16.678 0 01-5.83 3.56 25.3 25.3 0 01-14.07.51 18.558 18.558 0 01-4.76-2 16.809 16.809 0 01-3.59-2.93 21.869 21.869 0 01-2.62-3.52l7.52-5.93a18.53 18.53 0 003.79 4.79 8.6 8.6 0 005.94 2 7.12 7.12 0 005.62-2.14 8.24 8.24 0 001.89-5.66v-.55A7.07 7.07 0 0023.7 27a7.17 7.17 0 00-5.31-1.93 8.61 8.61 0 00-4.65 1.14 12.545 12.545 0 00-2.8 2.24l-8.48-1.17L4.25.03H33.7l-.01 9.02z"/></svg><svg viewBox="0 0 38 49" id="four" xmlns="http://www.w3.org/2000/svg"><path d="M21.93 48.57v-9.24H.75v-8.9l18.77-30h12.27v30.83h6.07v8.07h-6.07v9.24h-9.86zM9 31.26h12.9V11.12h-.69L9 31.26z"/></svg><svg fill="none" viewBox="0 0 100 100" id="gov2" xmlns="http://www.w3.org/2000/svg"><path fill="#fff" d="M0 0h100v100H0z"/><path d="M78.266 33.435V20.447H63.333v-10.35h-2.872v10.35H45.528v12.988h-4.084v39.706H18.06v2.885h6.562v23.295H82.35V33.435h-4.084zM48.348 23.332h27.045v10.103H48.348V23.332zm23.4 73.138H27.495V76.044h44.253v20.427zm7.73 0H74.62V73.177H44.263V36.321h35.224l-.01 60.15z" fill="#000105"/><path d="M76.825 40.653H46.907v2.885h29.918v-2.885zM76.825 48.25H46.907v2.885h29.918V48.25zM76.825 55.847H46.907v2.885h29.918v-2.885zM76.825 63.435H46.907v2.886h29.918v-2.886z" fill="#000105"/><path d="M78.266 33.435V20.447H63.333v-10.35h-2.872v10.35H45.528v12.988h-4.084v39.706H18.06v2.885h6.562v23.295H82.35V33.435h-4.084zM48.348 23.332h27.045v10.103H48.348V23.332zm23.4 73.138H27.495V76.044h44.253v20.427zm7.73 0H74.62V73.177H44.263V36.321h35.224l-.01 60.15z" fill="#000105"/><path d="M79.478 96.453H74.62V73.159H44.263V36.32h35.215v60.132z" fill="var(--color-blue)"/><path d="M76.825 40.653H46.907v2.885h29.918v-2.885zM76.825 48.25H46.907v2.885h29.918V48.25zM76.825 55.847H46.907v2.885h29.918v-2.885zM76.825 63.435H46.907v2.886h29.918v-2.886z" fill="var(--color-black)"/><path d="M75.393 23.332H48.348v10.103h27.045V23.332z" fill="var(--color-fiolett)"/><path d="M71.748 96.453H27.495v-20.41h44.253v20.41z" fill="var(--color-wblue)"/></svg><svg fill="none" viewBox="0 0 100 100" id="hotel2" xmlns="http://www.w3.org/2000/svg"><path fill="#fff" d="M0 0h100v100H0z"/><path d="M18.584 89.374h14.95V73.36h-14.95v16.014zm3.261-12.738h8.468v9.55h-8.468v-9.55zM83.295 73.36h-14.95v15.974h14.95V73.36zm-3.241 12.827h-8.468v-9.502h8.468v9.502zM83.295 51.14h-14.95v15.974h14.95V51.14zm-3.241 12.738h-8.468v-9.502h8.468v9.502zM43.1 67.114h14.95V51.14H43.1v15.974zm3.24-12.738h8.468v9.502H46.34v-9.502zM32.813 51.14h-14.92v15.974h14.92V51.14zm-3.24 12.738h-8.469v-9.502h8.468v9.502z" fill="#000105"/><path d="M50.58 26.138L9.137 47.115V99.26H92V47.115L50.58 26.138zm-7.066 69.915V76.537h14.13v19.516h-14.13zm45.255 0H60.885V73.36H40.273v22.693H12.38V49.098l38.2-19.329 38.19 19.329v46.955z" fill="#000105"/><path d="M50.58 26.138L9.137 47.115V99.26H92V47.115L50.58 26.138zm-7.066 69.915V76.537h14.13v19.516h-14.13zm45.255 0H60.885V73.36H40.273v22.693H12.38V49.098l38.2-19.329 38.19 19.329v46.955z" fill="#000105"/><path d="M50.58 26.138L9.137 47.115V99.26H92V47.115L50.58 26.138zm-7.066 69.915V76.537h14.13v19.516h-14.13zm45.255 0H60.885V73.36H40.273v22.693H12.38V49.098l38.2-19.329 38.19 19.329v46.955z" fill="#000105"/><path d="M50.58 26.138L9.137 47.115V99.26H92V47.115L50.58 26.138zm-7.066 69.915V76.537h14.13v19.516h-14.13zm45.255 0H60.885V73.36H40.273v22.693H12.38V49.098l38.2-19.329 38.19 19.329v46.955z" fill="#000105"/><path d="M88.769 96.024H60.885V73.301H40.273v22.723H12.38V49.098l38.2-19.329L88.77 49.1v46.925z" fill="var(--color-green)"/><path d="M18.584 89.374h14.95V73.36h-14.95v16.014zm3.261-12.738h8.468v9.55h-8.468v-9.55zM83.295 73.36h-14.95v15.974h14.95V73.36zm-3.241 12.827h-8.468v-9.502h8.468v9.502zM83.295 51.14h-14.95v15.974h14.95V51.14zm-3.241 12.738h-8.468v-9.502h8.468v9.502zM43.1 67.114h14.95V51.14H43.1v15.974zm3.24-12.738h8.468v9.502H46.34v-9.502zM32.813 51.14h-14.92v15.974h14.92V51.14zm-3.24 12.738h-8.469v-9.502h8.468v9.502z" fill="#000105"/><path d="M29.572 54.377h-8.468v9.501h8.468v-9.501zM54.808 54.377H46.34v9.501h8.468v-9.501zM80.054 54.377h-8.468v9.501h8.468v-9.501zM30.293 76.636h-8.467v9.502h8.467v-9.502zM80.054 76.636h-8.468v9.502h8.468v-9.502z" fill="var(--color-yellow)"/><path d="M80.054 76.636h-8.468v9.502h8.468v-9.502z" fill="var(--color-yellow)"/></svg><svg fill="none" viewBox="0 0 44 53" id="lk" xmlns="http://www.w3.org/2000/svg"><g clip-path="url(#mclip0_620_21)" fill="#fff"><path d="M22.192 24.535a12.193 12.193 0 006.77-2.082 12.223 12.223 0 004.477-5.497 12.246 12.246 0 00-2.674-13.311 12.189 12.189 0 00-13.299-2.631 12.212 12.212 0 00-5.471 4.504 12.242 12.242 0 00-2.054 6.789 12.29 12.29 0 003.606 8.646 12.25 12.25 0 008.645 3.582zm0-22.998a10.704 10.704 0 015.959 1.807 10.731 10.731 0 013.95 4.82 10.752 10.752 0 01-2.329 11.704 10.7 10.7 0 01-11.689 2.314 10.721 10.721 0 01-4.805-3.965 10.748 10.748 0 01-1.794-5.971c.01-2.84 1.14-5.562 3.148-7.568a10.716 10.716 0 017.56-3.14zM44.009 45.96a22.025 22.025 0 00-6.531-15.634l-.367-.35-.122-.104c-.209-.201-.427-.394-.654-.586l-.34-.297-.68-.541-.366-.271c-.233-.175-.468-.34-.706-.498l-.393-.253-.453-.297-.672-.41-.4-.228-6.401 10.936-.872-6.254 1.7-3.354-4.848-2.254-4.857 2.254 1.744 3.354-.872 5.974-6.243-10.656-.393.227-.662.41-.454.298-.392.253c-.233.157-.468.323-.706.498l-.367.27-.68.542-.349.297a20.44 20.44 0 00-.645.585l-.122.105-.366.35A22.025 22.025 0 00-.017 45.96c.005.97.072 1.939.2 2.9l.044.245c.154 1.13.401 2.246.74 3.336l.167.55h41.724l.165-.55c.339-1.087.587-2.2.741-3.328v-.253c.144-.96.225-1.929.245-2.9zM21.904 27.277l2.756 1.276-.872 1.746h-3.75l-.872-1.746 2.738-1.276zm-1.683 4.542h3.366l1.107 7.748L22 44.16l-2.834-4.839 1.055-7.503zm21.852 16.814v.35a20.942 20.942 0 01-.462 2.27H2.44a20.109 20.109 0 01-.444-2.114l-.061-.506a19.246 19.246 0 01-.192-2.673 20.188 20.188 0 016-14.394l.2-.201.148-.14.096-.087.602-.542.322-.27.628-.498.331-.253.654-.455.323-.218 6.461 11.031 4.447 7.73.053-.087v.044l1.508-2.568 9.452-16.15.323.218.654.454.331.254.628.498.323.27.593.542.122.096v.044l.296.288a20.16 20.16 0 016 14.394c.007.894-.049 1.787-.166 2.673z"/></g><defs><clipPath id="mclip0_620_21"><path fill="#fff" d="M0 0h44v53H0z"/></clipPath></defs></svg><svg viewBox="0 0 32 39" id="man" xmlns="http://www.w3.org/2000/svg"><path d="M16.133 18.054a8.795 8.795 0 004.924-1.532 8.974 8.974 0 003.256-4.045 9.11 9.11 0 00.492-5.196 9.035 9.035 0 00-2.437-4.599A8.842 8.842 0 0017.822.228a8.769 8.769 0 00-5.125.518 8.905 8.905 0 00-3.98 3.314 9.085 9.085 0 00-1.494 4.996 9.098 9.098 0 002.623 6.363 8.856 8.856 0 006.287 2.635zM32 33.82c0-2.14-.419-4.259-1.232-6.233a16.198 16.198 0 00-3.505-5.272l-.267-.257-.088-.077c-.152-.148-.311-.29-.47-.43l-.253-.22-.495-.398-.266-.199c-.17-.129-.34-.25-.514-.366l-.285-.187-.33-.218-.482-.302-.285-.168-4.655 8.047-.634-4.601 1.268-2.468-3.532-1.659-3.526 1.659 1.268 2.468-.634 4.396-4.534-7.841-.286.167-.488.302-.323.218c-.102.058-.197.122-.292.187-.095.064-.343.237-.514.366l-.26.2c-.171.128-.336.263-.5.398l-.248.218c-.165.142-.324.283-.476.43l-.089.078-.266.257a16.165 16.165 0 00-3.504 5.271A16.341 16.341 0 00.076 33.82c0 .713.05 1.426.146 2.133v.18c.112.833.292 1.654.54 2.456l.12.404h30.287l.12-.404c.246-.8.428-1.62.546-2.45v-.186c.1-.707.155-1.42.165-2.133z"/></svg><svg fill="none" viewBox="0 0 29 33" id="next" xmlns="http://www.w3.org/2000/svg"><path d="M28.38 16.28L.21.01v32.53l28.17-16.26z" fill="#000"/></svg><svg fill="none" viewBox="0 0 100 100" id="plant2" xmlns="http://www.w3.org/2000/svg"><path fill="#fff" d="M0 0h100v100H0z"/><g clip-path="url(#pclip0_2_2)"><path d="M54.601 38.083h13.306a8.101 8.101 0 001.51-4.737 7.524 7.524 0 00-.12-1.308 10.995 10.995 0 004.134-3.857 10.925 10.925 0 001.661-5.391 11.02 11.02 0 004.687-3.493 10.922 10.922 0 001.37-11.152 10.982 10.982 0 00-3.704-4.513 11.07 11.07 0 00-11.254-.893 11.005 11.005 0 00-4.376 3.871 10.932 10.932 0 00-1.766 5.555 11.01 11.01 0 00-4.01 2.694 10.942 10.942 0 00-2.463 4.144 10.905 10.905 0 001.23 9.313 8.077 8.077 0 00-.227 9.774l.022-.007z" fill="var(--color-transparent)" stroke-width="4" stroke-miterlimit="10" stroke="var(--color-stroke)"/><path d="M70.672 64.572l-1.783-27.497H53.596l-1.33 21.339-6.505 4.872V53.203L32.32 63.286V53.203l-16.003 12.03V99.46h62.62V64.57h-8.265zm-4.163-24.948l.378 5.94H55.62l.378-5.94h10.51zM54.926 56.391l.53-8.27h11.597l1.08 16.45h-8.96V53.203l-4.247 3.188zM31.111 96.895V85.27h11.197v11.624H31.111zm21.76 0V85.27h11.205v11.624H52.871zm23.475 0h-9.724V82.707H50.317V96.88h-5.44V82.707h-16.32V96.88h-9.709V66.48l10.88-8.165V68.42L43.2 58.316V68.42l8.847-6.639 4.594-3.444v8.805h19.743l-.038 29.752z" fill="#000105"/><path d="M70.672 64.572l-1.783-27.497H53.596l-1.33 21.339-6.505 4.872V53.203L32.32 63.286V53.203l-16.003 12.03V99.46h62.62V64.57h-8.265zm-4.163-24.948l.378 5.94H55.62l.378-5.94h10.51zM54.926 56.391l.53-8.27h11.597l1.08 16.45h-8.96V53.203l-4.247 3.188zM31.111 96.895V85.27h11.197v11.624H31.111zm21.76 0V85.27h11.205v11.624H52.871zm23.475 0h-9.724V82.707H50.317V96.88h-5.44V82.707h-16.32V96.88h-9.709V66.48l10.88-8.165V68.42L43.2 58.316V68.42l8.847-6.639 4.594-3.444v8.805h19.743l-.038 29.752z" fill="#000105"/><path d="M76.354 96.895h-9.71V82.722H50.318v14.173h-5.44V82.722h-16.32v14.173h-9.709V66.48l10.88-8.165v10.083L43.17 58.316v10.083l8.847-6.64 4.594-3.443v8.804H76.354v29.775z" fill="var(--color-brown)"/><path d="M64.084 85.27H52.879v11.617h11.205V85.271zM42.324 85.27H31.119v11.617h11.205V85.271z" fill="var(--color-gray)"/><path d="M54.926 56.391l.53-8.278h11.597l1.05 16.459h-8.93V53.203l-4.247 3.188z" fill="var(--color-blue)"/></g><defs><clipPath id="pclip0_2_2"><path fill="#fff" transform="translate(16)" d="M0 0h68v100H0z"/></clipPath></defs></svg><svg fill="none" viewBox="0 0 30 34" id="prev" xmlns="http://www.w3.org/2000/svg"><path d="M.94 17.01l28.17 16.26V.75L.94 17.01z" fill="#000"/></svg><svg viewBox="0 0 36 50" id="sec" xmlns="http://www.w3.org/2000/svg"><path d="M35.85 50H1.78v-9.45l14.83-12.69c1.33-1.15 2.46-2.19 3.38-3.14a17.635 17.635 0 002.24-2.76 9.539 9.539 0 001.62-5.48v-1a5.17 5.17 0 00-.55-2.42 5.27 5.27 0 00-1.45-1.72 6.35 6.35 0 00-2-1 7.88 7.88 0 00-2.31-.34 7.47 7.47 0 00-3 .55 7.001 7.001 0 00-2.2 1.48 8.533 8.533 0 00-1.56 2.14c-.43.823-.765 1.692-1 2.59l-9-3.45a20.61 20.61 0 012.28-4.73 15.86 15.86 0 013.62-3.93A16.76 16.76 0 0111.82 2a21.35 21.35 0 016.69-1 20.52 20.52 0 017 1.1 15.15 15.15 0 015.13 3 12.838 12.838 0 013.21 4.59 15.82 15.82 0 01.07 11.41 19.998 19.998 0 01-2.79 4.8 30.29 30.29 0 01-4.11 4.24c-1.56 1.333-3.19 2.69-4.89 4.07l-9 7h22.76L35.85 50z"/></svg><svg fill="none" viewBox="0 0 100 100" id="sh2" xmlns="http://www.w3.org/2000/svg"><path fill="#fff" d="M0 0h100v100H0z"/><path d="M91.652 74.88H80.638l3.645-7.324-3.51-17.983h-3.154V44H75.77V36.81h-7.145V44h-1.85v5.61H53.379l-.733-6.108H33.281L31.262 60.96 6.86 45.182.857 54.365 8.2 59.12l3.358-2.418L31.03 69.298l1.697 5.582H22.661v16.65h4.135v7.803H87.48V91.53h4.172V74.88zm-36.488-6.178H80.71l-3.073 6.178H53.288l1.876-6.178zm16.15-29.253H73.1V44h-1.787V39.45zm-1.85 7.2h5.467v2.924h-5.466V46.65zm-2.68 5.6h11.818l2.68 13.778H55.379l-1.644-13.778h13.05zm-31.056-6.107h14.586l.411 3.431 1.956 16.454H33.352l.411-3.431 1.965-16.454zm-24.26 7.307L8.11 55.876l-3.573-2.294L7.61 48.88l23.223 15.05-.232 1.946L11.47 53.449zm22.188 15.253h18.757l-1.875 6.178H35.55l-1.894-6.178zm-4.18 22.827v-8.756h4.564v13.885h-4.564v-5.129zm48.054-8.756v13.885h-4.555V82.773h4.555zm-7.244 13.885h-4.564V82.773h4.564v13.885zm-7.253 0h-4.555V82.773h4.555v13.885zm-7.252 0h-4.556V82.773h4.556v13.885zm-7.244 0h-4.565V82.773h4.565v13.885zm-7.253 0h-4.556V82.773h4.556v13.885zm43.499 0h-4.564V82.773h4.564v13.885zm4.171-7.813h-1.482v-8.747H26.796v8.747h-1.483v-11.29h63.65l-.009 11.29z" fill="#000105"/><path d="M45.074 48.735l-9.455 9.41 1.901 1.891 9.455-9.41-1.901-1.891zM47.743 52.737l-9.455 9.409 1.901 1.892 9.455-9.41-1.9-1.891z" fill="#000105"/><path d="M91.652 74.88H80.638l3.645-7.324-3.51-17.983h-3.154V44H75.77V36.81h-7.145V44h-1.85v5.61H53.379l-.733-6.108H33.281L31.262 60.96 6.86 45.182.857 54.365 8.2 59.12l3.358-2.418L31.03 69.298l1.697 5.582H22.661v16.65h4.135v7.803H87.48V91.53h4.172V74.88zm-36.488-6.178H80.71l-3.073 6.178H53.288l1.876-6.178zM71.581 39.45h1.537V44H71.58V39.45zm-2.117 7.2h5.467v2.924h-5.466V46.65zm-2.68 5.6h11.818l2.68 13.778H55.379l-1.644-13.778h13.05zm-31.056-6.107h14.586l.411 3.431 1.956 16.454H33.352l.411-3.431 1.965-16.454zm-24.26 7.307L8.11 55.876l-3.573-2.294L7.61 48.88l23.223 15.05-.232 1.946L11.47 53.449zm22.188 15.253h18.757l-1.875 6.178H35.55l-1.894-6.178zm-4.18 22.827v-8.756h4.564v13.885h-4.564v-5.129zm48.054-8.756v13.885h-4.555V82.773h4.555zm-7.244 13.885h-4.564V82.773h4.564v13.885zm-7.253 0h-4.555V82.773h4.555v13.885zm-7.252 0h-4.556V82.773h4.556v13.885zm-7.244 0h-4.565V82.773h4.565v13.885zm-7.253 0h-4.556V82.773h4.556v13.885zm43.499 0h-4.564V82.773h4.564v13.885zm4.171-7.813h-1.482v-8.747H26.796v8.747h-1.483v-11.29h63.65l-.009 11.29z" fill="#000105"/><path d="M66.776 52.25h11.773l2.697 13.777H55.36l-1.644-13.778h13.059zM55.164 68.702H80.71l-3.073 6.178H53.288l1.876-6.178zM33.62 68.702h18.74l-1.876 6.178H35.496l-1.876-6.178zM11.442 53.45l-3.358 2.426-3.538-2.294L7.62 48.88l23.25 15.05-.232 1.946-19.195-12.427zM88.963 88.844H87.48v-8.746H26.796v8.746h-1.483V77.556H88.963v11.288z" fill="var(--color-green)"/><path d="M35.692 46.142h14.595l.411 3.431 1.956 16.454H33.325l.411-3.431 1.956-16.454z" fill="var(--color-blue)"/><path d="M45.074 48.735l-9.455 9.41 1.901 1.891 9.455-9.41-1.901-1.891zM47.918 52.217l-9.89 9.843 1.99 1.98 9.89-9.844-1.99-1.98z" fill="var(--color-white)"/><path d="M74.93 46.649h-5.466v2.924h5.467V46.65zM73.118 39.449H71.58v4.515h1.537V39.45z" fill="var(--color-green)"/></svg><svg viewBox="0 0 37 51" id="thr" xmlns="http://www.w3.org/2000/svg"><path d="M17.61 20.46c2.57 0 4.45-.49 5.62-1.48a4.65 4.65 0 001.76-3.69v-.48a5.489 5.489 0 00-1.69-4.21 6.72 6.72 0 00-4.79-1.59c-1.916 0-3.798.51-5.45 1.48a13 13 0 00-4.35 4.25L2.23 8.67a27.47 27.47 0 013-3.28 16.88 16.88 0 013.59-2.55 18.56 18.56 0 014.48-1.66A24.49 24.49 0 0118.89.6a25.72 25.72 0 017 .89 16.22 16.22 0 015.38 2.59 11.65 11.65 0 013.45 4 12 12 0 01.48 9.38 10.087 10.087 0 01-2 3.24 10.48 10.48 0 01-2.93 2.24 12.54 12.54 0 01-3.52 1.21v.41c1.391.256 2.738.71 4 1.35a11.201 11.201 0 013.17 2.37c.914.996 1.63 2.156 2.11 3.42a12.39 12.39 0 01.76 4.45 12.59 12.59 0 01-5 10.34A17.44 17.44 0 0126 49.36a26.48 26.48 0 01-7.45 1 25.42 25.42 0 01-6.49-.76 19.117 19.117 0 01-4.93-2 16.887 16.887 0 01-3.65-2.93 22.297 22.297 0 01-2.73-3.52l7.66-5.93a15.679 15.679 0 003.9 4.86 9.51 9.51 0 006.24 1.9 7.9 7.9 0 005.48-1.76 6.1 6.1 0 002-4.79V35a5 5 0 00-2.24-4.45 11.12 11.12 0 00-6.18-1.49h-4.34v-8.62l4.34.02z"/></svg><svg fill="none" viewBox="0 0 749 202" id="tooltip" xmlns="http://www.w3.org/2000/svg"><path d="M142.09 48.2L71.22 4.87l15.8 43.33H2.58v151.31h743.63V48.2H142.09z" stroke="#201600" stroke-width="4" stroke-miterlimit="10"/></svg><svg viewBox="0 0 43 63" id="vopr" xmlns="http://www.w3.org/2000/svg"><path d="M30 14.28a8.33 8.33 0 00-3.58-3 13.41 13.41 0 00-5.51-1 14.55 14.55 0 00-7.31 1.9 16.14 16.14 0 00-5.64 5.34l-7.66-6a34.722 34.722 0 015.73-5.71 22.32 22.32 0 016.89-3.62A28.47 28.47 0 0121.75.93a23.5 23.5 0 017.7 1.26 20.79 20.79 0 016.56 3.66 17 17 0 014.54 5.72 16.66 16.66 0 011.64 7.52 15.56 15.56 0 01-2.56 8.88 19.35 19.35 0 01-6.69 6.14 23.841 23.841 0 01-8.67 2.9l-.5 8.08h-8.66l-1.68-15h2.6c2.913.099 5.808-.49 8.45-1.72a12.84 12.84 0 005.1-4.29 9.14 9.14 0 001.68-5 8.61 8.61 0 00-1.26-4.8zm-15.35 38a7.52 7.52 0 019.88 0 5.9 5.9 0 010 8.75 7.55 7.55 0 01-9.88 0 5.82 5.82 0 010-8.75z"/></svg><svg viewBox="0 0 100 100" id="vopr2" xmlns="http://www.w3.org/2000/svg"><path fill="#fff" d="M0 0h100v100H0z"/><path d="M65.091 29.396a11.724 11.724 0 00-5.099-4.267 18.72 18.72 0 00-7.82-1.57 20.66 20.66 0 00-10.417 2.715A22.975 22.975 0 0033.73 33.9l-10.949-8.535a49.017 49.017 0 018.149-8.174 31.76 31.76 0 019.838-5.052 40.221 40.221 0 0112.513-1.804 33.142 33.142 0 0110.949 1.804 29.378 29.378 0 019.384 5.224 24.463 24.463 0 016.476 8.175 23.895 23.895 0 012.33 10.747 22.33 22.33 0 01-3.644 12.677 27.385 27.385 0 01-9.526 8.77 33.745 33.745 0 01-12.34 4.159l-.72 11.532H43.897l-2.393-21.385h3.707c4.151.133 8.276-.71 12.044-2.464a18.378 18.378 0 007.258-6.134 13.208 13.208 0 002.377-7.155 12.36 12.36 0 00-1.799-6.888zM43.194 83.714a10.678 10.678 0 0114.077 0 8.44 8.44 0 012.787 6.276 8.465 8.465 0 01-2.788 6.276 10.726 10.726 0 01-7.038 2.634c-2.586 0-5.084-.935-7.038-2.634a8.317 8.317 0 01-2.852-6.276 8.339 8.339 0 012.852-6.276z"/></svg></svg>